<svg xmlns="http://www.w3.org/2000/svg" xmlns:rdkit="http://www.rdkit.org/xml" xmlns:xlink="http://www.w3.org/1999/xlink" version="1.1" baseProfile="full" xml:space="preserve" width="1000px" height="500px" viewBox="0 0 1000 500">
<!-- END OF HEADER -->
<rect style="opacity:1.0;fill:#FFFFFF;stroke:none" width="1000.0" height="500.0" x="0.0" y="0.0"> </rect>
<path class="bond-0 atom-0 atom-1" d="M 24.0,274.0 L 45.0,311.1" style="fill:none;fill-rule:evenodd;stroke:#000000;stroke-width:2.0px;stroke-linecap:butt;stroke-linejoin:miter;stroke-opacity:1"/>
<path class="bond-1 atom-1 atom-2" d="M 45.0,311.1 L 37.9,326.8" style="fill:none;fill-rule:evenodd;stroke:#000000;stroke-width:2.0px;stroke-linecap:butt;stroke-linejoin:miter;stroke-opacity:1"/>
<path class="bond-1 atom-1 atom-2" d="M 37.9,326.8 L 30.7,342.4" style="fill:none;fill-rule:evenodd;stroke:#0000FF;stroke-width:2.0px;stroke-linecap:butt;stroke-linejoin:miter;stroke-opacity:1"/>
<path class="bond-2 atom-2 atom-3" d="M 33.3,355.4 L 46.0,367.0" style="fill:none;fill-rule:evenodd;stroke:#0000FF;stroke-width:2.0px;stroke-linecap:butt;stroke-linejoin:miter;stroke-opacity:1"/>
<path class="bond-2 atom-2 atom-3" d="M 46.0,367.0 L 58.7,378.7" style="fill:none;fill-rule:evenodd;stroke:#000000;stroke-width:2.0px;stroke-linecap:butt;stroke-linejoin:miter;stroke-opacity:1"/>
<path class="bond-2 atom-2 atom-3" d="M 37.6,350.7 L 48.6,360.8" style="fill:none;fill-rule:evenodd;stroke:#0000FF;stroke-width:2.0px;stroke-linecap:butt;stroke-linejoin:miter;stroke-opacity:1"/>
<path class="bond-2 atom-2 atom-3" d="M 48.6,360.8 L 59.6,370.9" style="fill:none;fill-rule:evenodd;stroke:#000000;stroke-width:2.0px;stroke-linecap:butt;stroke-linejoin:miter;stroke-opacity:1"/>
<path class="bond-3 atom-3 atom-4" d="M 58.7,378.7 L 74.7,369.7" style="fill:none;fill-rule:evenodd;stroke:#000000;stroke-width:2.0px;stroke-linecap:butt;stroke-linejoin:miter;stroke-opacity:1"/>
<path class="bond-3 atom-3 atom-4" d="M 74.7,369.7 L 90.6,360.7" style="fill:none;fill-rule:evenodd;stroke:#CCCC00;stroke-width:2.0px;stroke-linecap:butt;stroke-linejoin:miter;stroke-opacity:1"/>
<path class="bond-4 atom-4 atom-5" d="M 94.4,350.3 L 90.9,333.1" style="fill:none;fill-rule:evenodd;stroke:#CCCC00;stroke-width:2.0px;stroke-linecap:butt;stroke-linejoin:miter;stroke-opacity:1"/>
<path class="bond-4 atom-4 atom-5" d="M 90.9,333.1 L 87.4,315.9" style="fill:none;fill-rule:evenodd;stroke:#000000;stroke-width:2.0px;stroke-linecap:butt;stroke-linejoin:miter;stroke-opacity:1"/>
<path class="bond-5 atom-5 atom-6" d="M 87.4,315.9 L 116.2,284.5" style="fill:none;fill-rule:evenodd;stroke:#000000;stroke-width:2.0px;stroke-linecap:butt;stroke-linejoin:miter;stroke-opacity:1"/>
<path class="bond-6 atom-6 atom-7" d="M 116.2,284.5 L 157.8,293.8" style="fill:none;fill-rule:evenodd;stroke:#000000;stroke-width:2.0px;stroke-linecap:butt;stroke-linejoin:miter;stroke-opacity:1"/>
<path class="bond-6 atom-6 atom-7" d="M 121.2,279.1 L 155.6,286.7" style="fill:none;fill-rule:evenodd;stroke:#000000;stroke-width:2.0px;stroke-linecap:butt;stroke-linejoin:miter;stroke-opacity:1"/>
<path class="bond-7 atom-7 atom-8" d="M 157.8,293.8 L 186.7,262.3" style="fill:none;fill-rule:evenodd;stroke:#000000;stroke-width:2.0px;stroke-linecap:butt;stroke-linejoin:miter;stroke-opacity:1"/>
<path class="bond-8 atom-8 atom-9" d="M 186.7,262.3 L 173.9,221.7" style="fill:none;fill-rule:evenodd;stroke:#000000;stroke-width:2.0px;stroke-linecap:butt;stroke-linejoin:miter;stroke-opacity:1"/>
<path class="bond-8 atom-8 atom-9" d="M 179.5,260.7 L 168.9,227.1" style="fill:none;fill-rule:evenodd;stroke:#000000;stroke-width:2.0px;stroke-linecap:butt;stroke-linejoin:miter;stroke-opacity:1"/>
<path class="bond-9 atom-9 atom-10" d="M 173.9,221.7 L 202.7,190.2" style="fill:none;fill-rule:evenodd;stroke:#000000;stroke-width:2.0px;stroke-linecap:butt;stroke-linejoin:miter;stroke-opacity:1"/>
<path class="bond-10 atom-10 atom-11" d="M 202.7,190.2 L 220.5,194.2" style="fill:none;fill-rule:evenodd;stroke:#000000;stroke-width:2.0px;stroke-linecap:butt;stroke-linejoin:miter;stroke-opacity:1"/>
<path class="bond-10 atom-10 atom-11" d="M 220.5,194.2 L 238.3,198.2" style="fill:none;fill-rule:evenodd;stroke:#0000FF;stroke-width:2.0px;stroke-linecap:butt;stroke-linejoin:miter;stroke-opacity:1"/>
<path class="bond-11 atom-11 atom-12" d="M 250.3,193.0 L 261.7,180.5" style="fill:none;fill-rule:evenodd;stroke:#0000FF;stroke-width:2.0px;stroke-linecap:butt;stroke-linejoin:miter;stroke-opacity:1"/>
<path class="bond-11 atom-11 atom-12" d="M 261.7,180.5 L 273.2,168.1" style="fill:none;fill-rule:evenodd;stroke:#000000;stroke-width:2.0px;stroke-linecap:butt;stroke-linejoin:miter;stroke-opacity:1"/>
<path class="bond-12 atom-12 atom-13" d="M 276.8,168.9 L 271.3,151.5" style="fill:none;fill-rule:evenodd;stroke:#000000;stroke-width:2.0px;stroke-linecap:butt;stroke-linejoin:miter;stroke-opacity:1"/>
<path class="bond-12 atom-12 atom-13" d="M 271.3,151.5 L 265.8,134.1" style="fill:none;fill-rule:evenodd;stroke:#FF0000;stroke-width:2.0px;stroke-linecap:butt;stroke-linejoin:miter;stroke-opacity:1"/>
<path class="bond-12 atom-12 atom-13" d="M 270.7,170.8 L 265.2,153.4" style="fill:none;fill-rule:evenodd;stroke:#000000;stroke-width:2.0px;stroke-linecap:butt;stroke-linejoin:miter;stroke-opacity:1"/>
<path class="bond-12 atom-12 atom-13" d="M 265.2,153.4 L 259.7,136.1" style="fill:none;fill-rule:evenodd;stroke:#FF0000;stroke-width:2.0px;stroke-linecap:butt;stroke-linejoin:miter;stroke-opacity:1"/>
<path class="bond-13 atom-12 atom-14" d="M 273.2,168.1 L 314.8,177.3" style="fill:none;fill-rule:evenodd;stroke:#000000;stroke-width:2.0px;stroke-linecap:butt;stroke-linejoin:miter;stroke-opacity:1"/>
<path class="bond-14 atom-14 atom-15" d="M 314.8,177.3 L 346.7,149.1" style="fill:none;fill-rule:evenodd;stroke:#000000;stroke-width:2.0px;stroke-linecap:butt;stroke-linejoin:miter;stroke-opacity:1"/>
<path class="bond-15 atom-15 atom-16" d="M 346.7,149.1 L 383.5,170.8" style="fill:none;fill-rule:evenodd;stroke:#000000;stroke-width:2.0px;stroke-linecap:butt;stroke-linejoin:miter;stroke-opacity:1"/>
<path class="bond-16 atom-16 atom-17" d="M 383.5,170.8 L 399.6,163.8" style="fill:none;fill-rule:evenodd;stroke:#000000;stroke-width:2.0px;stroke-linecap:butt;stroke-linejoin:miter;stroke-opacity:1"/>
<path class="bond-16 atom-16 atom-17" d="M 399.6,163.8 L 415.6,156.8" style="fill:none;fill-rule:evenodd;stroke:#FF0000;stroke-width:2.0px;stroke-linecap:butt;stroke-linejoin:miter;stroke-opacity:1"/>
<path class="bond-17 atom-16 atom-18" d="M 383.5,170.8 L 374.2,212.4" style="fill:none;fill-rule:evenodd;stroke:#000000;stroke-width:2.0px;stroke-linecap:butt;stroke-linejoin:miter;stroke-opacity:1"/>
<path class="bond-18 atom-18 atom-19" d="M 374.2,212.4 L 356.0,214.1" style="fill:none;fill-rule:evenodd;stroke:#000000;stroke-width:2.0px;stroke-linecap:butt;stroke-linejoin:miter;stroke-opacity:1"/>
<path class="bond-18 atom-18 atom-19" d="M 356.0,214.1 L 337.8,215.9" style="fill:none;fill-rule:evenodd;stroke:#0000FF;stroke-width:2.0px;stroke-linecap:butt;stroke-linejoin:miter;stroke-opacity:1"/>
<path class="bond-19 atom-19 atom-20" d="M 327.4,223.9 L 318.7,238.5" style="fill:none;fill-rule:evenodd;stroke:#0000FF;stroke-width:2.0px;stroke-linecap:butt;stroke-linejoin:miter;stroke-opacity:1"/>
<path class="bond-19 atom-19 atom-20" d="M 318.7,238.5 L 310.1,253.2" style="fill:none;fill-rule:evenodd;stroke:#000000;stroke-width:2.0px;stroke-linecap:butt;stroke-linejoin:miter;stroke-opacity:1"/>
<path class="bond-20 atom-20 atom-21" d="M 312.0,250.0 L 293.2,249.8" style="fill:none;fill-rule:evenodd;stroke:#000000;stroke-width:2.0px;stroke-linecap:butt;stroke-linejoin:miter;stroke-opacity:1"/>
<path class="bond-20 atom-20 atom-21" d="M 293.2,249.8 L 274.4,249.6" style="fill:none;fill-rule:evenodd;stroke:#FF0000;stroke-width:2.0px;stroke-linecap:butt;stroke-linejoin:miter;stroke-opacity:1"/>
<path class="bond-20 atom-20 atom-21" d="M 311.9,256.4 L 293.1,256.2" style="fill:none;fill-rule:evenodd;stroke:#000000;stroke-width:2.0px;stroke-linecap:butt;stroke-linejoin:miter;stroke-opacity:1"/>
<path class="bond-20 atom-20 atom-21" d="M 293.1,256.2 L 274.4,256.0" style="fill:none;fill-rule:evenodd;stroke:#FF0000;stroke-width:2.0px;stroke-linecap:butt;stroke-linejoin:miter;stroke-opacity:1"/>
<path class="bond-21 atom-20 atom-22" d="M 310.1,253.2 L 331.1,290.3" style="fill:none;fill-rule:evenodd;stroke:#000000;stroke-width:2.0px;stroke-linecap:butt;stroke-linejoin:miter;stroke-opacity:1"/>
<path class="bond-22 atom-22 atom-23" d="M 331.1,290.3 L 349.4,290.5" style="fill:none;fill-rule:evenodd;stroke:#000000;stroke-width:2.0px;stroke-linecap:butt;stroke-linejoin:miter;stroke-opacity:1"/>
<path class="bond-22 atom-22 atom-23" d="M 349.4,290.5 L 367.7,290.6" style="fill:none;fill-rule:evenodd;stroke:#0000FF;stroke-width:2.0px;stroke-linecap:butt;stroke-linejoin:miter;stroke-opacity:1"/>
<path class="bond-23 atom-23 atom-24" d="M 377.9,298.1 L 386.3,313.0" style="fill:none;fill-rule:evenodd;stroke:#0000FF;stroke-width:2.0px;stroke-linecap:butt;stroke-linejoin:miter;stroke-opacity:1"/>
<path class="bond-23 atom-23 atom-24" d="M 386.3,313.0 L 394.7,327.8" style="fill:none;fill-rule:evenodd;stroke:#000000;stroke-width:2.0px;stroke-linecap:butt;stroke-linejoin:miter;stroke-opacity:1"/>
<path class="bond-24 atom-24 atom-25" d="M 392.9,324.6 L 383.8,340.0" style="fill:none;fill-rule:evenodd;stroke:#000000;stroke-width:2.0px;stroke-linecap:butt;stroke-linejoin:miter;stroke-opacity:1"/>
<path class="bond-24 atom-24 atom-25" d="M 383.8,340.0 L 374.7,355.4" style="fill:none;fill-rule:evenodd;stroke:#FF0000;stroke-width:2.0px;stroke-linecap:butt;stroke-linejoin:miter;stroke-opacity:1"/>
<path class="bond-24 atom-24 atom-25" d="M 398.4,327.9 L 389.3,343.3" style="fill:none;fill-rule:evenodd;stroke:#000000;stroke-width:2.0px;stroke-linecap:butt;stroke-linejoin:miter;stroke-opacity:1"/>
<path class="bond-24 atom-24 atom-25" d="M 389.3,343.3 L 380.2,358.7" style="fill:none;fill-rule:evenodd;stroke:#FF0000;stroke-width:2.0px;stroke-linecap:butt;stroke-linejoin:miter;stroke-opacity:1"/>
<path class="bond-25 atom-24 atom-26" d="M 394.7,327.8 L 437.3,328.2" style="fill:none;fill-rule:evenodd;stroke:#000000;stroke-width:2.0px;stroke-linecap:butt;stroke-linejoin:miter;stroke-opacity:1"/>
<path class="bond-26 atom-26 atom-27" d="M 437.3,328.2 L 440.5,311.0" style="fill:none;fill-rule:evenodd;stroke:#000000;stroke-width:2.0px;stroke-linecap:butt;stroke-linejoin:miter;stroke-opacity:1"/>
<path class="bond-26 atom-26 atom-27" d="M 440.5,311.0 L 443.7,293.7" style="fill:none;fill-rule:evenodd;stroke:#33CCCC;stroke-width:2.0px;stroke-linecap:butt;stroke-linejoin:miter;stroke-opacity:1"/>
<path class="bond-27 atom-26 atom-28" d="M 437.3,328.2 L 477.3,343.2" style="fill:none;fill-rule:evenodd;stroke:#000000;stroke-width:2.0px;stroke-linecap:butt;stroke-linejoin:miter;stroke-opacity:1"/>
<path class="bond-28 atom-28 atom-29" d="M 477.3,343.2 L 444.4,370.3" style="fill:none;fill-rule:evenodd;stroke:#000000;stroke-width:2.0px;stroke-linecap:butt;stroke-linejoin:miter;stroke-opacity:1"/>
<path class="bond-29 atom-22 atom-30" d="M 331.1,290.3 L 309.4,327.0" style="fill:none;fill-rule:evenodd;stroke:#000000;stroke-width:2.0px;stroke-linecap:butt;stroke-linejoin:miter;stroke-opacity:1"/>
<path class="bond-30 atom-30 atom-31" d="M 309.4,327.0 L 346.1,348.7" style="fill:none;fill-rule:evenodd;stroke:#000000;stroke-width:2.0px;stroke-linecap:butt;stroke-linejoin:miter;stroke-opacity:1"/>
<path class="bond-31 atom-30 atom-32" d="M 309.4,327.0 L 272.7,305.4" style="fill:none;fill-rule:evenodd;stroke:#000000;stroke-width:2.0px;stroke-linecap:butt;stroke-linejoin:miter;stroke-opacity:1"/>
<path class="bond-32 atom-30 atom-33" d="M 309.4,327.0 L 287.7,363.8" style="fill:none;fill-rule:evenodd;stroke:#000000;stroke-width:2.0px;stroke-linecap:butt;stroke-linejoin:miter;stroke-opacity:1"/>
<path class="bond-33 atom-9 atom-34" d="M 173.9,221.7 L 132.2,212.4" style="fill:none;fill-rule:evenodd;stroke:#000000;stroke-width:2.0px;stroke-linecap:butt;stroke-linejoin:miter;stroke-opacity:1"/>
<path class="bond-34 atom-34 atom-35" d="M 132.2,212.4 L 127.1,195.9" style="fill:none;fill-rule:evenodd;stroke:#000000;stroke-width:2.0px;stroke-linecap:butt;stroke-linejoin:miter;stroke-opacity:1"/>
<path class="bond-34 atom-34 atom-35" d="M 127.1,195.9 L 121.9,179.4" style="fill:none;fill-rule:evenodd;stroke:#FF0000;stroke-width:2.0px;stroke-linecap:butt;stroke-linejoin:miter;stroke-opacity:1"/>
<path class="bond-35 atom-35 atom-36" d="M 112.5,170.2 L 97.7,166.9" style="fill:none;fill-rule:evenodd;stroke:#FF0000;stroke-width:2.0px;stroke-linecap:butt;stroke-linejoin:miter;stroke-opacity:1"/>
<path class="bond-35 atom-35 atom-36" d="M 97.7,166.9 L 82.9,163.6" style="fill:none;fill-rule:evenodd;stroke:#191919;stroke-width:2.0px;stroke-linecap:butt;stroke-linejoin:miter;stroke-opacity:1"/>
<path class="bond-36 atom-34 atom-37" d="M 132.2,212.4 L 103.4,243.8" style="fill:none;fill-rule:evenodd;stroke:#000000;stroke-width:2.0px;stroke-linecap:butt;stroke-linejoin:miter;stroke-opacity:1"/>
<path class="bond-36 atom-34 atom-37" d="M 134.5,219.5 L 110.6,245.4" style="fill:none;fill-rule:evenodd;stroke:#000000;stroke-width:2.0px;stroke-linecap:butt;stroke-linejoin:miter;stroke-opacity:1"/>
<path class="bond-37 atom-5 atom-1" d="M 87.4,315.9 L 45.0,311.1" style="fill:none;fill-rule:evenodd;stroke:#000000;stroke-width:2.0px;stroke-linecap:butt;stroke-linejoin:miter;stroke-opacity:1"/>
<path class="bond-37 atom-5 atom-1" d="M 82.0,321.8 L 48.9,318.0" style="fill:none;fill-rule:evenodd;stroke:#000000;stroke-width:2.0px;stroke-linecap:butt;stroke-linejoin:miter;stroke-opacity:1"/>
<path class="bond-38 atom-37 atom-6" d="M 103.4,243.8 L 116.2,284.5" style="fill:none;fill-rule:evenodd;stroke:#000000;stroke-width:2.0px;stroke-linecap:butt;stroke-linejoin:miter;stroke-opacity:1"/>
<path class="bond-39 atom-19 atom-14" d="M 328.5,209.0 L 321.7,193.2" style="fill:none;fill-rule:evenodd;stroke:#0000FF;stroke-width:2.0px;stroke-linecap:butt;stroke-linejoin:miter;stroke-opacity:1"/>
<path class="bond-39 atom-19 atom-14" d="M 321.7,193.2 L 314.8,177.3" style="fill:none;fill-rule:evenodd;stroke:#000000;stroke-width:2.0px;stroke-linecap:butt;stroke-linejoin:miter;stroke-opacity:1"/>
<path class="bond-40 atom-29 atom-26" d="M 444.4,370.3 L 437.3,328.2" style="fill:none;fill-rule:evenodd;stroke:#000000;stroke-width:2.0px;stroke-linecap:butt;stroke-linejoin:miter;stroke-opacity:1"/>
<path d="M 58.1,378.1 L 58.7,378.7 L 59.5,378.3" style="fill:none;stroke:#000000;stroke-width:2.0px;stroke-linecap:butt;stroke-linejoin:miter;stroke-opacity:1;"/>
<path d="M 155.8,293.3 L 157.8,293.8 L 159.3,292.2" style="fill:none;stroke:#000000;stroke-width:2.0px;stroke-linecap:butt;stroke-linejoin:miter;stroke-opacity:1;"/>
<path d="M 185.2,263.9 L 186.7,262.3 L 186.0,260.3" style="fill:none;stroke:#000000;stroke-width:2.0px;stroke-linecap:butt;stroke-linejoin:miter;stroke-opacity:1;"/>
<path d="M 201.3,191.8 L 202.7,190.2 L 203.6,190.4" style="fill:none;stroke:#000000;stroke-width:2.0px;stroke-linecap:butt;stroke-linejoin:miter;stroke-opacity:1;"/>
<path d="M 272.6,168.7 L 273.2,168.1 L 275.2,168.5" style="fill:none;stroke:#000000;stroke-width:2.0px;stroke-linecap:butt;stroke-linejoin:miter;stroke-opacity:1;"/>
<path d="M 345.1,150.5 L 346.7,149.1 L 348.6,150.2" style="fill:none;stroke:#000000;stroke-width:2.0px;stroke-linecap:butt;stroke-linejoin:miter;stroke-opacity:1;"/>
<path d="M 374.7,210.3 L 374.2,212.4 L 373.3,212.5" style="fill:none;stroke:#000000;stroke-width:2.0px;stroke-linecap:butt;stroke-linejoin:miter;stroke-opacity:1;"/>
<path d="M 310.5,252.4 L 310.1,253.2 L 311.1,255.0" style="fill:none;stroke:#000000;stroke-width:2.0px;stroke-linecap:butt;stroke-linejoin:miter;stroke-opacity:1;"/>
<path d="M 394.3,327.1 L 394.7,327.8 L 396.8,327.9" style="fill:none;stroke:#000000;stroke-width:2.0px;stroke-linecap:butt;stroke-linejoin:miter;stroke-opacity:1;"/>
<path d="M 475.3,342.4 L 477.3,343.2 L 475.6,344.5" style="fill:none;stroke:#000000;stroke-width:2.0px;stroke-linecap:butt;stroke-linejoin:miter;stroke-opacity:1;"/>
<path d="M 446.0,368.9 L 444.4,370.3 L 444.0,368.2" style="fill:none;stroke:#000000;stroke-width:2.0px;stroke-linecap:butt;stroke-linejoin:miter;stroke-opacity:1;"/>
<path d="M 104.9,242.3 L 103.4,243.8 L 104.1,245.9" style="fill:none;stroke:#000000;stroke-width:2.0px;stroke-linecap:butt;stroke-linejoin:miter;stroke-opacity:1;"/>
<path class="atom-2" d="M 24.6 343.8 L 28.6 350.2 Q 29.0 350.9, 29.6 352.0 Q 30.2 353.2, 30.3 353.2 L 30.3 343.8 L 31.9 343.8 L 31.9 355.9 L 30.2 355.9 L 26.0 348.9 Q 25.5 348.1, 25.0 347.2 Q 24.5 346.2, 24.3 345.9 L 24.3 355.9 L 22.7 355.9 L 22.7 343.8 L 24.6 343.8 " fill="#0000FF"/>
<path class="atom-4" d="M 92.4 361.9 Q 92.6 361.9, 93.1 362.2 Q 93.7 362.4, 94.3 362.6 Q 95.0 362.7, 95.6 362.7 Q 96.7 362.7, 97.4 362.2 Q 98.0 361.6, 98.0 360.6 Q 98.0 360.0, 97.7 359.5 Q 97.4 359.1, 96.9 358.9 Q 96.4 358.7, 95.5 358.4 Q 94.4 358.1, 93.8 357.8 Q 93.1 357.5, 92.7 356.8 Q 92.2 356.2, 92.2 355.1 Q 92.2 353.6, 93.3 352.6 Q 94.3 351.7, 96.4 351.7 Q 97.8 351.7, 99.3 352.4 L 98.9 353.7 Q 97.5 353.1, 96.4 353.1 Q 95.2 353.1, 94.6 353.6 Q 93.9 354.1, 93.9 354.9 Q 93.9 355.5, 94.3 355.9 Q 94.6 356.3, 95.1 356.6 Q 95.6 356.8, 96.4 357.0 Q 97.5 357.4, 98.1 357.7 Q 98.8 358.1, 99.3 358.8 Q 99.7 359.4, 99.7 360.6 Q 99.7 362.3, 98.6 363.2 Q 97.5 364.1, 95.6 364.1 Q 94.6 364.1, 93.7 363.8 Q 92.9 363.6, 92.0 363.2 L 92.4 361.9 " fill="#CCCC00"/>
<path class="atom-11" d="M 241.7 193.5 L 245.6 199.9 Q 246.0 200.5, 246.6 201.6 Q 247.3 202.8, 247.3 202.8 L 247.3 193.5 L 248.9 193.5 L 248.9 205.5 L 247.3 205.5 L 243.0 198.5 Q 242.5 197.7, 242.0 196.8 Q 241.5 195.8, 241.3 195.6 L 241.3 205.5 L 239.7 205.5 L 239.7 193.5 L 241.7 193.5 " fill="#0000FF"/>
<path class="atom-11" d="M 239.6 206.7 L 241.2 206.7 L 241.2 211.9 L 247.4 211.9 L 247.4 206.7 L 249.1 206.7 L 249.1 218.8 L 247.4 218.8 L 247.4 213.2 L 241.2 213.2 L 241.2 218.8 L 239.6 218.8 L 239.6 206.7 " fill="#0000FF"/>
<path class="atom-13" d="M 254.8 127.4 Q 254.8 124.5, 256.2 122.9 Q 257.7 121.3, 260.4 121.3 Q 263.0 121.3, 264.5 122.9 Q 265.9 124.5, 265.9 127.4 Q 265.9 130.4, 264.4 132.0 Q 263.0 133.7, 260.4 133.7 Q 257.7 133.7, 256.2 132.0 Q 254.8 130.4, 254.8 127.4 M 260.4 132.3 Q 262.2 132.3, 263.2 131.1 Q 264.2 129.9, 264.2 127.4 Q 264.2 125.1, 263.2 123.9 Q 262.2 122.7, 260.4 122.7 Q 258.5 122.7, 257.5 123.8 Q 256.5 125.0, 256.5 127.4 Q 256.5 129.9, 257.5 131.1 Q 258.5 132.3, 260.4 132.3 " fill="#FF0000"/>
<path class="atom-17" d="M 417.0 153.8 Q 417.0 150.9, 418.5 149.3 Q 419.9 147.7, 422.6 147.7 Q 425.3 147.7, 426.7 149.3 Q 428.1 150.9, 428.1 153.8 Q 428.1 156.7, 426.7 158.4 Q 425.2 160.1, 422.6 160.1 Q 419.9 160.1, 418.5 158.4 Q 417.0 156.8, 417.0 153.8 M 422.6 158.7 Q 424.4 158.7, 425.4 157.5 Q 426.4 156.2, 426.4 153.8 Q 426.4 151.4, 425.4 150.2 Q 424.4 149.0, 422.6 149.0 Q 420.7 149.0, 419.7 150.2 Q 418.7 151.4, 418.7 153.8 Q 418.7 156.2, 419.7 157.5 Q 420.7 158.7, 422.6 158.7 " fill="#FF0000"/>
<path class="atom-17" d="M 430.0 147.8 L 431.6 147.8 L 431.6 152.9 L 437.8 152.9 L 437.8 147.8 L 439.5 147.8 L 439.5 159.9 L 437.8 159.9 L 437.8 154.3 L 431.6 154.3 L 431.6 159.9 L 430.0 159.9 L 430.0 147.8 " fill="#FF0000"/>
<path class="atom-19" d="M 329.1 210.4 L 333.1 216.8 Q 333.4 217.4, 334.1 218.6 Q 334.7 219.7, 334.7 219.8 L 334.7 210.4 L 336.3 210.4 L 336.3 222.5 L 334.7 222.5 L 330.4 215.5 Q 329.9 214.7, 329.4 213.7 Q 328.9 212.8, 328.8 212.5 L 328.8 222.5 L 327.2 222.5 L 327.2 210.4 L 329.1 210.4 " fill="#0000FF"/>
<path class="atom-21" d="M 261.9 252.8 Q 261.9 249.9, 263.3 248.3 Q 264.8 246.7, 267.5 246.7 Q 270.1 246.7, 271.6 248.3 Q 273.0 249.9, 273.0 252.8 Q 273.0 255.7, 271.5 257.4 Q 270.1 259.1, 267.5 259.1 Q 264.8 259.1, 263.3 257.4 Q 261.9 255.8, 261.9 252.8 M 267.5 257.7 Q 269.3 257.7, 270.3 256.5 Q 271.3 255.2, 271.3 252.8 Q 271.3 250.4, 270.3 249.3 Q 269.3 248.0, 267.5 248.0 Q 265.6 248.0, 264.6 249.2 Q 263.6 250.4, 263.6 252.8 Q 263.6 255.3, 264.6 256.5 Q 265.6 257.7, 267.5 257.7 " fill="#FF0000"/>
<path class="atom-23" d="M 371.0 284.7 L 375.0 291.1 Q 375.4 291.7, 376.0 292.8 Q 376.7 294.0, 376.7 294.0 L 376.7 284.7 L 378.3 284.7 L 378.3 296.7 L 376.6 296.7 L 372.4 289.7 Q 371.9 288.9, 371.4 288.0 Q 370.9 287.1, 370.7 286.8 L 370.7 296.7 L 369.1 296.7 L 369.1 284.7 L 371.0 284.7 " fill="#0000FF"/>
<path class="atom-23" d="M 380.6 284.7 L 382.3 284.7 L 382.3 289.8 L 388.5 289.8 L 388.5 284.7 L 390.1 284.7 L 390.1 296.7 L 388.5 296.7 L 388.5 291.2 L 382.3 291.2 L 382.3 296.7 L 380.6 296.7 L 380.6 284.7 " fill="#0000FF"/>
<path class="atom-25" d="M 367.5 364.6 Q 367.5 361.7, 368.9 360.1 Q 370.4 358.5, 373.0 358.5 Q 375.7 358.5, 377.1 360.1 Q 378.6 361.7, 378.6 364.6 Q 378.6 367.5, 377.1 369.2 Q 375.7 370.9, 373.0 370.9 Q 370.4 370.9, 368.9 369.2 Q 367.5 367.5, 367.5 364.6 M 373.0 369.5 Q 374.9 369.5, 375.9 368.3 Q 376.9 367.0, 376.9 364.6 Q 376.9 362.2, 375.9 361.0 Q 374.9 359.8, 373.0 359.8 Q 371.2 359.8, 370.2 361.0 Q 369.2 362.2, 369.2 364.6 Q 369.2 367.0, 370.2 368.3 Q 371.2 369.5, 373.0 369.5 " fill="#FF0000"/>
<path class="atom-27" d="M 441.5 280.3 L 448.7 280.3 L 448.7 281.6 L 443.2 281.6 L 443.2 285.3 L 448.1 285.3 L 448.1 286.7 L 443.2 286.7 L 443.2 292.3 L 441.5 292.3 L 441.5 280.3 " fill="#33CCCC"/>
<path class="atom-35" d="M 113.9 171.8 Q 113.9 168.9, 115.3 167.2 Q 116.8 165.6, 119.4 165.6 Q 122.1 165.6, 123.6 167.2 Q 125.0 168.9, 125.0 171.8 Q 125.0 174.7, 123.5 176.4 Q 122.1 178.0, 119.4 178.0 Q 116.8 178.0, 115.3 176.4 Q 113.9 174.7, 113.9 171.8 M 119.4 176.7 Q 121.3 176.7, 122.3 175.4 Q 123.3 174.2, 123.3 171.8 Q 123.3 169.4, 122.3 168.2 Q 121.3 167.0, 119.4 167.0 Q 117.6 167.0, 116.6 168.2 Q 115.6 169.4, 115.6 171.8 Q 115.6 174.2, 116.6 175.4 Q 117.6 176.7, 119.4 176.7 " fill="#FF0000"/>
<path class="atom-36" d="M 64.6 161.1 L 66.3 159.3 L 64.0 158.8 L 64.3 157.6 L 66.5 158.7 L 66.2 156.4 L 67.5 156.3 L 67.1 158.7 L 69.3 157.7 L 69.7 158.8 L 67.3 159.3 L 69.0 161.1 L 68.0 161.9 L 66.8 159.6 L 65.6 161.9 L 64.6 161.1 " fill="#191919"/>
<path class="atom-36" d="M 70.7 166.6 L 72.4 166.6 L 72.4 168.3 L 70.7 168.3 L 70.7 166.6 M 70.7 160.8 L 72.4 160.8 L 72.4 162.5 L 70.7 162.5 L 70.7 160.8 " fill="#191919"/>
<path class="atom-36" d="M 74.8 167.3 L 77.5 167.3 L 77.5 158.2 L 74.6 159.1 L 74.2 158.1 L 77.9 156.5 L 79.1 156.7 L 79.1 167.3 L 81.5 167.3 L 81.5 168.6 L 74.8 168.6 L 74.8 167.3 " fill="#191919"/>
<path class="bond-0 atom-0 atom-1" d="M 524.0,274.0 L 545.0,311.1" style="fill:none;fill-rule:evenodd;stroke:#000000;stroke-width:2.0px;stroke-linecap:butt;stroke-linejoin:miter;stroke-opacity:1"/>
<path class="bond-1 atom-1 atom-2" d="M 545.0,311.1 L 537.9,326.8" style="fill:none;fill-rule:evenodd;stroke:#000000;stroke-width:2.0px;stroke-linecap:butt;stroke-linejoin:miter;stroke-opacity:1"/>
<path class="bond-1 atom-1 atom-2" d="M 537.9,326.8 L 530.7,342.4" style="fill:none;fill-rule:evenodd;stroke:#0000FF;stroke-width:2.0px;stroke-linecap:butt;stroke-linejoin:miter;stroke-opacity:1"/>
<path class="bond-2 atom-2 atom-3" d="M 533.3,355.4 L 546.0,367.0" style="fill:none;fill-rule:evenodd;stroke:#0000FF;stroke-width:2.0px;stroke-linecap:butt;stroke-linejoin:miter;stroke-opacity:1"/>
<path class="bond-2 atom-2 atom-3" d="M 546.0,367.0 L 558.7,378.7" style="fill:none;fill-rule:evenodd;stroke:#000000;stroke-width:2.0px;stroke-linecap:butt;stroke-linejoin:miter;stroke-opacity:1"/>
<path class="bond-2 atom-2 atom-3" d="M 537.6,350.7 L 548.6,360.8" style="fill:none;fill-rule:evenodd;stroke:#0000FF;stroke-width:2.0px;stroke-linecap:butt;stroke-linejoin:miter;stroke-opacity:1"/>
<path class="bond-2 atom-2 atom-3" d="M 548.6,360.8 L 559.6,370.9" style="fill:none;fill-rule:evenodd;stroke:#000000;stroke-width:2.0px;stroke-linecap:butt;stroke-linejoin:miter;stroke-opacity:1"/>
<path class="bond-3 atom-3 atom-4" d="M 558.7,378.7 L 574.7,369.7" style="fill:none;fill-rule:evenodd;stroke:#000000;stroke-width:2.0px;stroke-linecap:butt;stroke-linejoin:miter;stroke-opacity:1"/>
<path class="bond-3 atom-3 atom-4" d="M 574.7,369.7 L 590.6,360.7" style="fill:none;fill-rule:evenodd;stroke:#CCCC00;stroke-width:2.0px;stroke-linecap:butt;stroke-linejoin:miter;stroke-opacity:1"/>
<path class="bond-4 atom-4 atom-5" d="M 594.4,350.3 L 590.9,333.1" style="fill:none;fill-rule:evenodd;stroke:#CCCC00;stroke-width:2.0px;stroke-linecap:butt;stroke-linejoin:miter;stroke-opacity:1"/>
<path class="bond-4 atom-4 atom-5" d="M 590.9,333.1 L 587.4,315.9" style="fill:none;fill-rule:evenodd;stroke:#000000;stroke-width:2.0px;stroke-linecap:butt;stroke-linejoin:miter;stroke-opacity:1"/>
<path class="bond-5 atom-5 atom-6" d="M 587.4,315.9 L 616.2,284.5" style="fill:none;fill-rule:evenodd;stroke:#000000;stroke-width:2.0px;stroke-linecap:butt;stroke-linejoin:miter;stroke-opacity:1"/>
<path class="bond-6 atom-6 atom-7" d="M 616.2,284.5 L 657.8,293.8" style="fill:none;fill-rule:evenodd;stroke:#000000;stroke-width:2.0px;stroke-linecap:butt;stroke-linejoin:miter;stroke-opacity:1"/>
<path class="bond-6 atom-6 atom-7" d="M 621.2,279.1 L 655.6,286.7" style="fill:none;fill-rule:evenodd;stroke:#000000;stroke-width:2.0px;stroke-linecap:butt;stroke-linejoin:miter;stroke-opacity:1"/>
<path class="bond-7 atom-7 atom-8" d="M 657.8,293.8 L 686.7,262.3" style="fill:none;fill-rule:evenodd;stroke:#000000;stroke-width:2.0px;stroke-linecap:butt;stroke-linejoin:miter;stroke-opacity:1"/>
<path class="bond-8 atom-8 atom-9" d="M 686.7,262.3 L 673.9,221.7" style="fill:none;fill-rule:evenodd;stroke:#000000;stroke-width:2.0px;stroke-linecap:butt;stroke-linejoin:miter;stroke-opacity:1"/>
<path class="bond-8 atom-8 atom-9" d="M 679.5,260.7 L 668.9,227.1" style="fill:none;fill-rule:evenodd;stroke:#000000;stroke-width:2.0px;stroke-linecap:butt;stroke-linejoin:miter;stroke-opacity:1"/>
<path class="bond-9 atom-9 atom-10" d="M 673.9,221.7 L 702.7,190.2" style="fill:none;fill-rule:evenodd;stroke:#000000;stroke-width:2.0px;stroke-linecap:butt;stroke-linejoin:miter;stroke-opacity:1"/>
<path class="bond-10 atom-10 atom-11" d="M 702.7,190.2 L 720.5,194.2" style="fill:none;fill-rule:evenodd;stroke:#000000;stroke-width:2.0px;stroke-linecap:butt;stroke-linejoin:miter;stroke-opacity:1"/>
<path class="bond-10 atom-10 atom-11" d="M 720.5,194.2 L 738.3,198.2" style="fill:none;fill-rule:evenodd;stroke:#0000FF;stroke-width:2.0px;stroke-linecap:butt;stroke-linejoin:miter;stroke-opacity:1"/>
<path class="bond-11 atom-11 atom-12" d="M 750.3,193.0 L 761.7,180.5" style="fill:none;fill-rule:evenodd;stroke:#0000FF;stroke-width:2.0px;stroke-linecap:butt;stroke-linejoin:miter;stroke-opacity:1"/>
<path class="bond-11 atom-11 atom-12" d="M 761.7,180.5 L 773.2,168.1" style="fill:none;fill-rule:evenodd;stroke:#000000;stroke-width:2.0px;stroke-linecap:butt;stroke-linejoin:miter;stroke-opacity:1"/>
<path class="bond-12 atom-12 atom-13" d="M 776.8,168.9 L 771.3,151.5" style="fill:none;fill-rule:evenodd;stroke:#000000;stroke-width:2.0px;stroke-linecap:butt;stroke-linejoin:miter;stroke-opacity:1"/>
<path class="bond-12 atom-12 atom-13" d="M 771.3,151.5 L 765.8,134.1" style="fill:none;fill-rule:evenodd;stroke:#FF0000;stroke-width:2.0px;stroke-linecap:butt;stroke-linejoin:miter;stroke-opacity:1"/>
<path class="bond-12 atom-12 atom-13" d="M 770.7,170.8 L 765.2,153.4" style="fill:none;fill-rule:evenodd;stroke:#000000;stroke-width:2.0px;stroke-linecap:butt;stroke-linejoin:miter;stroke-opacity:1"/>
<path class="bond-12 atom-12 atom-13" d="M 765.2,153.4 L 759.7,136.1" style="fill:none;fill-rule:evenodd;stroke:#FF0000;stroke-width:2.0px;stroke-linecap:butt;stroke-linejoin:miter;stroke-opacity:1"/>
<path class="bond-13 atom-12 atom-14" d="M 773.2,168.1 L 814.8,177.3" style="fill:none;fill-rule:evenodd;stroke:#000000;stroke-width:2.0px;stroke-linecap:butt;stroke-linejoin:miter;stroke-opacity:1"/>
<path class="bond-14 atom-14 atom-15" d="M 814.8,177.3 L 846.7,149.1" style="fill:none;fill-rule:evenodd;stroke:#000000;stroke-width:2.0px;stroke-linecap:butt;stroke-linejoin:miter;stroke-opacity:1"/>
<path class="bond-15 atom-15 atom-16" d="M 846.7,149.1 L 883.5,170.8" style="fill:none;fill-rule:evenodd;stroke:#000000;stroke-width:2.0px;stroke-linecap:butt;stroke-linejoin:miter;stroke-opacity:1"/>
<path class="bond-16 atom-16 atom-17" d="M 883.5,170.8 L 899.6,163.8" style="fill:none;fill-rule:evenodd;stroke:#000000;stroke-width:2.0px;stroke-linecap:butt;stroke-linejoin:miter;stroke-opacity:1"/>
<path class="bond-16 atom-16 atom-17" d="M 899.6,163.8 L 915.6,156.8" style="fill:none;fill-rule:evenodd;stroke:#FF0000;stroke-width:2.0px;stroke-linecap:butt;stroke-linejoin:miter;stroke-opacity:1"/>
<path class="bond-17 atom-16 atom-18" d="M 883.5,170.8 L 874.2,212.4" style="fill:none;fill-rule:evenodd;stroke:#000000;stroke-width:2.0px;stroke-linecap:butt;stroke-linejoin:miter;stroke-opacity:1"/>
<path class="bond-18 atom-18 atom-19" d="M 874.2,212.4 L 856.0,214.1" style="fill:none;fill-rule:evenodd;stroke:#000000;stroke-width:2.0px;stroke-linecap:butt;stroke-linejoin:miter;stroke-opacity:1"/>
<path class="bond-18 atom-18 atom-19" d="M 856.0,214.1 L 837.8,215.9" style="fill:none;fill-rule:evenodd;stroke:#0000FF;stroke-width:2.0px;stroke-linecap:butt;stroke-linejoin:miter;stroke-opacity:1"/>
<path class="bond-19 atom-19 atom-20" d="M 827.4,223.9 L 818.7,238.5" style="fill:none;fill-rule:evenodd;stroke:#0000FF;stroke-width:2.0px;stroke-linecap:butt;stroke-linejoin:miter;stroke-opacity:1"/>
<path class="bond-19 atom-19 atom-20" d="M 818.7,238.5 L 810.1,253.2" style="fill:none;fill-rule:evenodd;stroke:#000000;stroke-width:2.0px;stroke-linecap:butt;stroke-linejoin:miter;stroke-opacity:1"/>
<path class="bond-20 atom-20 atom-21" d="M 812.0,250.0 L 793.2,249.8" style="fill:none;fill-rule:evenodd;stroke:#000000;stroke-width:2.0px;stroke-linecap:butt;stroke-linejoin:miter;stroke-opacity:1"/>
<path class="bond-20 atom-20 atom-21" d="M 793.2,249.8 L 774.4,249.6" style="fill:none;fill-rule:evenodd;stroke:#FF0000;stroke-width:2.0px;stroke-linecap:butt;stroke-linejoin:miter;stroke-opacity:1"/>
<path class="bond-20 atom-20 atom-21" d="M 811.9,256.4 L 793.1,256.2" style="fill:none;fill-rule:evenodd;stroke:#000000;stroke-width:2.0px;stroke-linecap:butt;stroke-linejoin:miter;stroke-opacity:1"/>
<path class="bond-20 atom-20 atom-21" d="M 793.1,256.2 L 774.4,256.0" style="fill:none;fill-rule:evenodd;stroke:#FF0000;stroke-width:2.0px;stroke-linecap:butt;stroke-linejoin:miter;stroke-opacity:1"/>
<path class="bond-21 atom-20 atom-22" d="M 810.1,253.2 L 831.1,290.3" style="fill:none;fill-rule:evenodd;stroke:#000000;stroke-width:2.0px;stroke-linecap:butt;stroke-linejoin:miter;stroke-opacity:1"/>
<path class="bond-22 atom-22 atom-23" d="M 831.1,290.3 L 849.4,290.5" style="fill:none;fill-rule:evenodd;stroke:#000000;stroke-width:2.0px;stroke-linecap:butt;stroke-linejoin:miter;stroke-opacity:1"/>
<path class="bond-22 atom-22 atom-23" d="M 849.4,290.5 L 867.7,290.6" style="fill:none;fill-rule:evenodd;stroke:#0000FF;stroke-width:2.0px;stroke-linecap:butt;stroke-linejoin:miter;stroke-opacity:1"/>
<path class="bond-23 atom-23 atom-24" d="M 877.9,298.1 L 886.3,313.0" style="fill:none;fill-rule:evenodd;stroke:#0000FF;stroke-width:2.0px;stroke-linecap:butt;stroke-linejoin:miter;stroke-opacity:1"/>
<path class="bond-23 atom-23 atom-24" d="M 886.3,313.0 L 894.7,327.8" style="fill:none;fill-rule:evenodd;stroke:#000000;stroke-width:2.0px;stroke-linecap:butt;stroke-linejoin:miter;stroke-opacity:1"/>
<path class="bond-24 atom-24 atom-25" d="M 892.9,324.6 L 883.8,340.0" style="fill:none;fill-rule:evenodd;stroke:#000000;stroke-width:2.0px;stroke-linecap:butt;stroke-linejoin:miter;stroke-opacity:1"/>
<path class="bond-24 atom-24 atom-25" d="M 883.8,340.0 L 874.7,355.4" style="fill:none;fill-rule:evenodd;stroke:#FF0000;stroke-width:2.0px;stroke-linecap:butt;stroke-linejoin:miter;stroke-opacity:1"/>
<path class="bond-24 atom-24 atom-25" d="M 898.4,327.9 L 889.3,343.3" style="fill:none;fill-rule:evenodd;stroke:#000000;stroke-width:2.0px;stroke-linecap:butt;stroke-linejoin:miter;stroke-opacity:1"/>
<path class="bond-24 atom-24 atom-25" d="M 889.3,343.3 L 880.2,358.7" style="fill:none;fill-rule:evenodd;stroke:#FF0000;stroke-width:2.0px;stroke-linecap:butt;stroke-linejoin:miter;stroke-opacity:1"/>
<path class="bond-25 atom-24 atom-26" d="M 894.7,327.8 L 937.3,328.2" style="fill:none;fill-rule:evenodd;stroke:#000000;stroke-width:2.0px;stroke-linecap:butt;stroke-linejoin:miter;stroke-opacity:1"/>
<path class="bond-26 atom-26 atom-27" d="M 937.3,328.2 L 940.5,311.0" style="fill:none;fill-rule:evenodd;stroke:#000000;stroke-width:2.0px;stroke-linecap:butt;stroke-linejoin:miter;stroke-opacity:1"/>
<path class="bond-26 atom-26 atom-27" d="M 940.5,311.0 L 943.7,293.7" style="fill:none;fill-rule:evenodd;stroke:#33CCCC;stroke-width:2.0px;stroke-linecap:butt;stroke-linejoin:miter;stroke-opacity:1"/>
<path class="bond-27 atom-26 atom-28" d="M 937.3,328.2 L 977.3,343.2" style="fill:none;fill-rule:evenodd;stroke:#000000;stroke-width:2.0px;stroke-linecap:butt;stroke-linejoin:miter;stroke-opacity:1"/>
<path class="bond-28 atom-28 atom-29" d="M 977.3,343.2 L 944.4,370.3" style="fill:none;fill-rule:evenodd;stroke:#000000;stroke-width:2.0px;stroke-linecap:butt;stroke-linejoin:miter;stroke-opacity:1"/>
<path class="bond-29 atom-22 atom-30" d="M 831.1,290.3 L 809.4,327.0" style="fill:none;fill-rule:evenodd;stroke:#000000;stroke-width:2.0px;stroke-linecap:butt;stroke-linejoin:miter;stroke-opacity:1"/>
<path class="bond-30 atom-30 atom-31" d="M 809.4,327.0 L 846.1,348.7" style="fill:none;fill-rule:evenodd;stroke:#000000;stroke-width:2.0px;stroke-linecap:butt;stroke-linejoin:miter;stroke-opacity:1"/>
<path class="bond-31 atom-30 atom-32" d="M 809.4,327.0 L 772.7,305.4" style="fill:none;fill-rule:evenodd;stroke:#000000;stroke-width:2.0px;stroke-linecap:butt;stroke-linejoin:miter;stroke-opacity:1"/>
<path class="bond-32 atom-30 atom-33" d="M 809.4,327.0 L 787.7,363.8" style="fill:none;fill-rule:evenodd;stroke:#000000;stroke-width:2.0px;stroke-linecap:butt;stroke-linejoin:miter;stroke-opacity:1"/>
<path class="bond-33 atom-9 atom-34" d="M 673.9,221.7 L 632.2,212.4" style="fill:none;fill-rule:evenodd;stroke:#000000;stroke-width:2.0px;stroke-linecap:butt;stroke-linejoin:miter;stroke-opacity:1"/>
<path class="bond-34 atom-34 atom-35" d="M 632.2,212.4 L 627.1,195.9" style="fill:none;fill-rule:evenodd;stroke:#000000;stroke-width:2.0px;stroke-linecap:butt;stroke-linejoin:miter;stroke-opacity:1"/>
<path class="bond-34 atom-34 atom-35" d="M 627.1,195.9 L 621.9,179.4" style="fill:none;fill-rule:evenodd;stroke:#FF0000;stroke-width:2.0px;stroke-linecap:butt;stroke-linejoin:miter;stroke-opacity:1"/>
<path class="bond-35 atom-35 atom-36" d="M 612.5,170.2 L 597.9,166.9" style="fill:none;fill-rule:evenodd;stroke:#FF0000;stroke-width:2.0px;stroke-linecap:butt;stroke-linejoin:miter;stroke-opacity:1"/>
<path class="bond-35 atom-35 atom-36" d="M 597.9,166.9 L 583.3,163.7" style="fill:none;fill-rule:evenodd;stroke:#191919;stroke-width:2.0px;stroke-linecap:butt;stroke-linejoin:miter;stroke-opacity:1"/>
<path class="bond-36 atom-34 atom-37" d="M 632.2,212.4 L 603.4,243.8" style="fill:none;fill-rule:evenodd;stroke:#000000;stroke-width:2.0px;stroke-linecap:butt;stroke-linejoin:miter;stroke-opacity:1"/>
<path class="bond-36 atom-34 atom-37" d="M 634.5,219.5 L 610.6,245.4" style="fill:none;fill-rule:evenodd;stroke:#000000;stroke-width:2.0px;stroke-linecap:butt;stroke-linejoin:miter;stroke-opacity:1"/>
<path class="bond-37 atom-5 atom-1" d="M 587.4,315.9 L 545.0,311.1" style="fill:none;fill-rule:evenodd;stroke:#000000;stroke-width:2.0px;stroke-linecap:butt;stroke-linejoin:miter;stroke-opacity:1"/>
<path class="bond-37 atom-5 atom-1" d="M 582.0,321.8 L 548.9,318.0" style="fill:none;fill-rule:evenodd;stroke:#000000;stroke-width:2.0px;stroke-linecap:butt;stroke-linejoin:miter;stroke-opacity:1"/>
<path class="bond-38 atom-37 atom-6" d="M 603.4,243.8 L 616.2,284.5" style="fill:none;fill-rule:evenodd;stroke:#000000;stroke-width:2.0px;stroke-linecap:butt;stroke-linejoin:miter;stroke-opacity:1"/>
<path class="bond-39 atom-19 atom-14" d="M 828.5,209.0 L 821.7,193.2" style="fill:none;fill-rule:evenodd;stroke:#0000FF;stroke-width:2.0px;stroke-linecap:butt;stroke-linejoin:miter;stroke-opacity:1"/>
<path class="bond-39 atom-19 atom-14" d="M 821.7,193.2 L 814.8,177.3" style="fill:none;fill-rule:evenodd;stroke:#000000;stroke-width:2.0px;stroke-linecap:butt;stroke-linejoin:miter;stroke-opacity:1"/>
<path class="bond-40 atom-29 atom-26" d="M 944.4,370.3 L 937.3,328.2" style="fill:none;fill-rule:evenodd;stroke:#000000;stroke-width:2.0px;stroke-linecap:butt;stroke-linejoin:miter;stroke-opacity:1"/>
<path d="M 558.1,378.1 L 558.7,378.7 L 559.5,378.3" style="fill:none;stroke:#000000;stroke-width:2.0px;stroke-linecap:butt;stroke-linejoin:miter;stroke-opacity:1;"/>
<path d="M 655.8,293.3 L 657.8,293.8 L 659.3,292.2" style="fill:none;stroke:#000000;stroke-width:2.0px;stroke-linecap:butt;stroke-linejoin:miter;stroke-opacity:1;"/>
<path d="M 685.2,263.9 L 686.7,262.3 L 686.0,260.3" style="fill:none;stroke:#000000;stroke-width:2.0px;stroke-linecap:butt;stroke-linejoin:miter;stroke-opacity:1;"/>
<path d="M 701.3,191.8 L 702.7,190.2 L 703.6,190.4" style="fill:none;stroke:#000000;stroke-width:2.0px;stroke-linecap:butt;stroke-linejoin:miter;stroke-opacity:1;"/>
<path d="M 772.6,168.7 L 773.2,168.1 L 775.2,168.5" style="fill:none;stroke:#000000;stroke-width:2.0px;stroke-linecap:butt;stroke-linejoin:miter;stroke-opacity:1;"/>
<path d="M 845.1,150.5 L 846.7,149.1 L 848.6,150.2" style="fill:none;stroke:#000000;stroke-width:2.0px;stroke-linecap:butt;stroke-linejoin:miter;stroke-opacity:1;"/>
<path d="M 874.7,210.3 L 874.2,212.4 L 873.3,212.5" style="fill:none;stroke:#000000;stroke-width:2.0px;stroke-linecap:butt;stroke-linejoin:miter;stroke-opacity:1;"/>
<path d="M 810.5,252.4 L 810.1,253.2 L 811.1,255.0" style="fill:none;stroke:#000000;stroke-width:2.0px;stroke-linecap:butt;stroke-linejoin:miter;stroke-opacity:1;"/>
<path d="M 894.3,327.1 L 894.7,327.8 L 896.8,327.9" style="fill:none;stroke:#000000;stroke-width:2.0px;stroke-linecap:butt;stroke-linejoin:miter;stroke-opacity:1;"/>
<path d="M 975.3,342.4 L 977.3,343.2 L 975.6,344.5" style="fill:none;stroke:#000000;stroke-width:2.0px;stroke-linecap:butt;stroke-linejoin:miter;stroke-opacity:1;"/>
<path d="M 946.0,368.9 L 944.4,370.3 L 944.0,368.2" style="fill:none;stroke:#000000;stroke-width:2.0px;stroke-linecap:butt;stroke-linejoin:miter;stroke-opacity:1;"/>
<path d="M 604.9,242.3 L 603.4,243.8 L 604.1,245.9" style="fill:none;stroke:#000000;stroke-width:2.0px;stroke-linecap:butt;stroke-linejoin:miter;stroke-opacity:1;"/>
<path class="atom-2" d="M 524.6 343.8 L 528.6 350.2 Q 529.0 350.9, 529.6 352.0 Q 530.2 353.2, 530.3 353.2 L 530.3 343.8 L 531.9 343.8 L 531.9 355.9 L 530.2 355.9 L 526.0 348.9 Q 525.5 348.1, 525.0 347.2 Q 524.5 346.2, 524.3 345.9 L 524.3 355.9 L 522.7 355.9 L 522.7 343.8 L 524.6 343.8 " fill="#0000FF"/>
<path class="atom-4" d="M 592.4 361.9 Q 592.6 361.9, 593.1 362.2 Q 593.7 362.4, 594.3 362.6 Q 595.0 362.7, 595.6 362.7 Q 596.7 362.7, 597.4 362.2 Q 598.0 361.6, 598.0 360.6 Q 598.0 360.0, 597.7 359.5 Q 597.4 359.1, 596.9 358.9 Q 596.4 358.7, 595.5 358.4 Q 594.4 358.1, 593.8 357.8 Q 593.1 357.5, 592.7 356.8 Q 592.2 356.2, 592.2 355.1 Q 592.2 353.6, 593.3 352.6 Q 594.3 351.7, 596.4 351.7 Q 597.8 351.7, 599.3 352.4 L 598.9 353.7 Q 597.5 353.1, 596.4 353.1 Q 595.2 353.1, 594.6 353.6 Q 593.9 354.1, 593.9 354.9 Q 593.9 355.5, 594.3 355.9 Q 594.6 356.3, 595.1 356.6 Q 595.6 356.8, 596.4 357.0 Q 597.5 357.4, 598.1 357.7 Q 598.8 358.1, 599.3 358.8 Q 599.7 359.4, 599.7 360.6 Q 599.7 362.3, 598.6 363.2 Q 597.5 364.1, 595.6 364.1 Q 594.6 364.1, 593.7 363.8 Q 592.9 363.6, 592.0 363.2 L 592.4 361.9 " fill="#CCCC00"/>
<path class="atom-11" d="M 741.7 193.5 L 745.6 199.9 Q 746.0 200.5, 746.6 201.6 Q 747.3 202.8, 747.3 202.8 L 747.3 193.5 L 748.9 193.5 L 748.9 205.5 L 747.3 205.5 L 743.0 198.5 Q 742.5 197.7, 742.0 196.8 Q 741.5 195.8, 741.3 195.6 L 741.3 205.5 L 739.7 205.5 L 739.7 193.5 L 741.7 193.5 " fill="#0000FF"/>
<path class="atom-11" d="M 739.6 206.7 L 741.2 206.7 L 741.2 211.9 L 747.4 211.9 L 747.4 206.7 L 749.1 206.7 L 749.1 218.8 L 747.4 218.8 L 747.4 213.2 L 741.2 213.2 L 741.2 218.8 L 739.6 218.8 L 739.6 206.7 " fill="#0000FF"/>
<path class="atom-13" d="M 754.8 127.4 Q 754.8 124.5, 756.2 122.9 Q 757.7 121.3, 760.4 121.3 Q 763.0 121.3, 764.5 122.9 Q 765.9 124.5, 765.9 127.4 Q 765.9 130.4, 764.4 132.0 Q 763.0 133.7, 760.4 133.7 Q 757.7 133.7, 756.2 132.0 Q 754.8 130.4, 754.8 127.4 M 760.4 132.3 Q 762.2 132.3, 763.2 131.1 Q 764.2 129.9, 764.2 127.4 Q 764.2 125.1, 763.2 123.9 Q 762.2 122.7, 760.4 122.7 Q 758.5 122.7, 757.5 123.8 Q 756.5 125.0, 756.5 127.4 Q 756.5 129.9, 757.5 131.1 Q 758.5 132.3, 760.4 132.3 " fill="#FF0000"/>
<path class="atom-17" d="M 917.0 153.8 Q 917.0 150.9, 918.5 149.3 Q 919.9 147.7, 922.6 147.7 Q 925.3 147.7, 926.7 149.3 Q 928.1 150.9, 928.1 153.8 Q 928.1 156.7, 926.7 158.4 Q 925.2 160.1, 922.6 160.1 Q 919.9 160.1, 918.5 158.4 Q 917.0 156.8, 917.0 153.8 M 922.6 158.7 Q 924.4 158.7, 925.4 157.5 Q 926.4 156.2, 926.4 153.8 Q 926.4 151.4, 925.4 150.2 Q 924.4 149.0, 922.6 149.0 Q 920.7 149.0, 919.7 150.2 Q 918.7 151.4, 918.7 153.8 Q 918.7 156.2, 919.7 157.5 Q 920.7 158.7, 922.6 158.7 " fill="#FF0000"/>
<path class="atom-17" d="M 930.0 147.8 L 931.6 147.8 L 931.6 152.9 L 937.8 152.9 L 937.8 147.8 L 939.5 147.8 L 939.5 159.9 L 937.8 159.9 L 937.8 154.3 L 931.6 154.3 L 931.6 159.9 L 930.0 159.9 L 930.0 147.8 " fill="#FF0000"/>
<path class="atom-19" d="M 829.1 210.4 L 833.1 216.8 Q 833.4 217.4, 834.1 218.6 Q 834.7 219.7, 834.7 219.8 L 834.7 210.4 L 836.3 210.4 L 836.3 222.5 L 834.7 222.5 L 830.4 215.5 Q 829.9 214.7, 829.4 213.7 Q 828.9 212.8, 828.8 212.5 L 828.8 222.5 L 827.2 222.5 L 827.2 210.4 L 829.1 210.4 " fill="#0000FF"/>
<path class="atom-21" d="M 761.9 252.8 Q 761.9 249.9, 763.3 248.3 Q 764.8 246.7, 767.5 246.7 Q 770.1 246.7, 771.6 248.3 Q 773.0 249.9, 773.0 252.8 Q 773.0 255.7, 771.5 257.4 Q 770.1 259.1, 767.5 259.1 Q 764.8 259.1, 763.3 257.4 Q 761.9 255.8, 761.9 252.8 M 767.5 257.7 Q 769.3 257.7, 770.3 256.5 Q 771.3 255.2, 771.3 252.8 Q 771.3 250.4, 770.3 249.3 Q 769.3 248.0, 767.5 248.0 Q 765.6 248.0, 764.6 249.2 Q 763.6 250.4, 763.6 252.8 Q 763.6 255.3, 764.6 256.5 Q 765.6 257.7, 767.5 257.7 " fill="#FF0000"/>
<path class="atom-23" d="M 871.0 284.7 L 875.0 291.1 Q 875.4 291.7, 876.0 292.8 Q 876.7 294.0, 876.7 294.0 L 876.7 284.7 L 878.3 284.7 L 878.3 296.7 L 876.6 296.7 L 872.4 289.7 Q 871.9 288.9, 871.4 288.0 Q 870.9 287.1, 870.7 286.8 L 870.7 296.7 L 869.1 296.7 L 869.1 284.7 L 871.0 284.7 " fill="#0000FF"/>
<path class="atom-23" d="M 880.6 284.7 L 882.3 284.7 L 882.3 289.8 L 888.5 289.8 L 888.5 284.7 L 890.1 284.7 L 890.1 296.7 L 888.5 296.7 L 888.5 291.2 L 882.3 291.2 L 882.3 296.7 L 880.6 296.7 L 880.6 284.7 " fill="#0000FF"/>
<path class="atom-25" d="M 867.5 364.6 Q 867.5 361.7, 868.9 360.1 Q 870.4 358.5, 873.0 358.5 Q 875.7 358.5, 877.1 360.1 Q 878.6 361.7, 878.6 364.6 Q 878.6 367.5, 877.1 369.2 Q 875.7 370.9, 873.0 370.9 Q 870.4 370.9, 868.9 369.2 Q 867.5 367.5, 867.5 364.6 M 873.0 369.5 Q 874.9 369.5, 875.9 368.3 Q 876.9 367.0, 876.9 364.6 Q 876.9 362.2, 875.9 361.0 Q 874.9 359.8, 873.0 359.8 Q 871.2 359.8, 870.2 361.0 Q 869.2 362.2, 869.2 364.6 Q 869.2 367.0, 870.2 368.3 Q 871.2 369.5, 873.0 369.5 " fill="#FF0000"/>
<path class="atom-27" d="M 941.5 280.3 L 948.7 280.3 L 948.7 281.6 L 943.2 281.6 L 943.2 285.3 L 948.1 285.3 L 948.1 286.7 L 943.2 286.7 L 943.2 292.3 L 941.5 292.3 L 941.5 280.3 " fill="#33CCCC"/>
<path class="atom-35" d="M 613.9 171.8 Q 613.9 168.9, 615.3 167.2 Q 616.8 165.6, 619.4 165.6 Q 622.1 165.6, 623.6 167.2 Q 625.0 168.9, 625.0 171.8 Q 625.0 174.7, 623.5 176.4 Q 622.1 178.0, 619.4 178.0 Q 616.8 178.0, 615.3 176.4 Q 613.9 174.7, 613.9 171.8 M 619.4 176.7 Q 621.3 176.7, 622.3 175.4 Q 623.3 174.2, 623.3 171.8 Q 623.3 169.4, 622.3 168.2 Q 621.3 167.0, 619.4 167.0 Q 617.6 167.0, 616.6 168.2 Q 615.6 169.4, 615.6 171.8 Q 615.6 174.2, 616.6 175.4 Q 617.6 176.7, 619.4 176.7 " fill="#FF0000"/>
<path class="atom-36" d="M 564.1 161.1 L 565.9 159.3 L 563.5 158.8 L 563.9 157.6 L 566.0 158.7 L 565.7 156.4 L 567.0 156.3 L 566.6 158.7 L 568.8 157.7 L 569.2 158.8 L 566.8 159.3 L 568.5 161.1 L 567.5 161.9 L 566.3 159.6 L 565.1 161.9 L 564.1 161.1 " fill="#191919"/>
<path class="atom-36" d="M 570.2 166.6 L 571.9 166.6 L 571.9 168.3 L 570.2 168.3 L 570.2 166.6 M 570.2 160.8 L 571.9 160.8 L 571.9 162.5 L 570.2 162.5 L 570.2 160.8 " fill="#191919"/>
<path class="atom-36" d="M 573.8 158.8 Q 574.2 157.7, 575.3 157.1 Q 576.3 156.4, 577.8 156.4 Q 579.6 156.4, 580.7 157.4 Q 581.7 158.4, 581.7 160.1 Q 581.7 161.9, 580.3 163.6 Q 579.0 165.3, 576.3 167.3 L 581.9 167.3 L 581.9 168.6 L 573.7 168.6 L 573.7 167.5 Q 576.0 165.9, 577.3 164.7 Q 578.7 163.5, 579.3 162.4 Q 580.0 161.3, 580.0 160.2 Q 580.0 159.1, 579.4 158.4 Q 578.8 157.8, 577.8 157.8 Q 576.8 157.8, 576.2 158.2 Q 575.5 158.6, 575.1 159.4 L 573.8 158.8 " fill="#191919"/>
</svg>