<svg xmlns="http://www.w3.org/2000/svg" xmlns:rdkit="http://www.rdkit.org/xml" xmlns:xlink="http://www.w3.org/1999/xlink" version="1.1" baseProfile="full" xml:space="preserve" width="500px" height="500px" viewBox="0 0 500 500">
<!-- END OF HEADER -->
<rect style="opacity:1.0;fill:#FFFFFF;stroke:none" width="500.0" height="500.0" x="0.0" y="0.0"> </rect>
<path class="bond-0 atom-0 atom-1" d="M 342.8,295.4 L 345.4,269.6" style="fill:none;fill-rule:evenodd;stroke:#FF0000;stroke-width:2.0px;stroke-linecap:butt;stroke-linejoin:miter;stroke-opacity:1"/>
<path class="bond-0 atom-0 atom-1" d="M 345.4,269.6 L 347.9,243.8" style="fill:none;fill-rule:evenodd;stroke:#000000;stroke-width:2.0px;stroke-linecap:butt;stroke-linejoin:miter;stroke-opacity:1"/>
<path class="bond-0 atom-0 atom-1" d="M 351.8,296.3 L 354.3,270.5" style="fill:none;fill-rule:evenodd;stroke:#FF0000;stroke-width:2.0px;stroke-linecap:butt;stroke-linejoin:miter;stroke-opacity:1"/>
<path class="bond-0 atom-0 atom-1" d="M 354.3,270.5 L 356.9,244.6" style="fill:none;fill-rule:evenodd;stroke:#000000;stroke-width:2.0px;stroke-linecap:butt;stroke-linejoin:miter;stroke-opacity:1"/>
<path class="bond-1 atom-1 atom-2" d="M 352.1,246.8 L 406.7,222.0" style="fill:none;fill-rule:evenodd;stroke:#000000;stroke-width:2.0px;stroke-linecap:butt;stroke-linejoin:miter;stroke-opacity:1"/>
<path class="bond-2 atom-2 atom-3" d="M 406.7,222.0 L 428.1,237.4" style="fill:none;fill-rule:evenodd;stroke:#000000;stroke-width:2.0px;stroke-linecap:butt;stroke-linejoin:miter;stroke-opacity:1"/>
<path class="bond-2 atom-2 atom-3" d="M 428.1,237.4 L 449.5,252.7" style="fill:none;fill-rule:evenodd;stroke:#191919;stroke-width:2.0px;stroke-linecap:butt;stroke-linejoin:miter;stroke-opacity:1"/>
<path class="bond-3 atom-1 atom-4" d="M 352.1,246.8 L 332.0,232.3" style="fill:none;fill-rule:evenodd;stroke:#000000;stroke-width:2.0px;stroke-linecap:butt;stroke-linejoin:miter;stroke-opacity:1"/>
<path class="bond-3 atom-1 atom-4" d="M 332.0,232.3 L 311.8,217.9" style="fill:none;fill-rule:evenodd;stroke:#0000FF;stroke-width:2.0px;stroke-linecap:butt;stroke-linejoin:miter;stroke-opacity:1"/>
<path class="bond-4 atom-4 atom-5" d="M 295.0,215.7 L 271.9,226.2" style="fill:none;fill-rule:evenodd;stroke:#0000FF;stroke-width:2.0px;stroke-linecap:butt;stroke-linejoin:miter;stroke-opacity:1"/>
<path class="bond-4 atom-4 atom-5" d="M 271.9,226.2 L 248.8,236.6" style="fill:none;fill-rule:evenodd;stroke:#000000;stroke-width:2.0px;stroke-linecap:butt;stroke-linejoin:miter;stroke-opacity:1"/>
<path class="bond-5 atom-5 atom-6" d="M 248.8,236.6 L 200.1,201.7" style="fill:none;fill-rule:evenodd;stroke:#000000;stroke-width:2.0px;stroke-linecap:butt;stroke-linejoin:miter;stroke-opacity:1"/>
<path class="bond-6 atom-6 atom-7" d="M 200.1,201.7 L 145.5,226.4" style="fill:none;fill-rule:evenodd;stroke:#000000;stroke-width:2.0px;stroke-linecap:butt;stroke-linejoin:miter;stroke-opacity:1"/>
<path class="bond-7 atom-7 atom-8" d="M 145.5,226.4 L 96.8,191.5" style="fill:none;fill-rule:evenodd;stroke:#000000;stroke-width:2.0px;stroke-linecap:butt;stroke-linejoin:miter;stroke-opacity:1"/>
<path class="bond-8 atom-8 atom-9" d="M 96.8,191.5 L 73.0,202.3" style="fill:none;fill-rule:evenodd;stroke:#000000;stroke-width:2.0px;stroke-linecap:butt;stroke-linejoin:miter;stroke-opacity:1"/>
<path class="bond-8 atom-8 atom-9" d="M 73.0,202.3 L 49.3,213.1" style="fill:none;fill-rule:evenodd;stroke:#191919;stroke-width:2.0px;stroke-linecap:butt;stroke-linejoin:miter;stroke-opacity:1"/>
<path d="M 354.9,245.5 L 352.1,246.8 L 351.1,246.1" style="fill:none;stroke:#000000;stroke-width:2.0px;stroke-linecap:butt;stroke-linejoin:miter;stroke-opacity:1;"/>
<path d="M 404.0,223.3 L 406.7,222.0 L 407.8,222.8" style="fill:none;stroke:#000000;stroke-width:2.0px;stroke-linecap:butt;stroke-linejoin:miter;stroke-opacity:1;"/>
<path d="M 250.0,236.1 L 248.8,236.6 L 246.4,234.9" style="fill:none;stroke:#000000;stroke-width:2.0px;stroke-linecap:butt;stroke-linejoin:miter;stroke-opacity:1;"/>
<path d="M 202.5,203.5 L 200.1,201.7 L 197.4,202.9" style="fill:none;stroke:#000000;stroke-width:2.0px;stroke-linecap:butt;stroke-linejoin:miter;stroke-opacity:1;"/>
<path d="M 148.2,225.2 L 145.5,226.4 L 143.1,224.7" style="fill:none;stroke:#000000;stroke-width:2.0px;stroke-linecap:butt;stroke-linejoin:miter;stroke-opacity:1;"/>
<path d="M 99.2,193.3 L 96.8,191.5 L 95.6,192.1" style="fill:none;stroke:#000000;stroke-width:2.0px;stroke-linecap:butt;stroke-linejoin:miter;stroke-opacity:1;"/>
<path class="atom-0" d="M 338.5 306.5 Q 338.5 302.4, 340.5 300.1 Q 342.5 297.9, 346.3 297.9 Q 350.0 297.9, 352.0 300.1 Q 354.0 302.4, 354.0 306.5 Q 354.0 310.6, 352.0 313.0 Q 350.0 315.3, 346.3 315.3 Q 342.5 315.3, 340.5 313.0 Q 338.5 310.6, 338.5 306.5 M 346.3 313.4 Q 348.8 313.4, 350.2 311.6 Q 351.7 309.9, 351.7 306.5 Q 351.7 303.2, 350.2 301.5 Q 348.8 299.8, 346.3 299.8 Q 343.7 299.8, 342.3 301.5 Q 340.9 303.1, 340.9 306.5 Q 340.9 309.9, 342.3 311.6 Q 343.7 313.4, 346.3 313.4 " fill="#FF0000"/>
<path class="atom-3" d="M 452.2 255.1 L 454.7 252.5 L 451.4 251.8 L 451.9 250.1 L 455.0 251.7 L 454.5 248.3 L 456.3 248.3 L 455.8 251.7 L 458.9 250.2 L 459.5 251.8 L 456.1 252.5 L 458.5 255.0 L 457.0 256.1 L 455.4 252.9 L 453.7 256.1 L 452.2 255.1 " fill="#191919"/>
<path class="atom-3" d="M 460.9 262.8 L 463.3 262.8 L 463.3 265.2 L 460.9 265.2 L 460.9 262.8 M 460.9 254.5 L 463.3 254.5 L 463.3 256.9 L 460.9 256.9 L 460.9 254.5 " fill="#191919"/>
<path class="atom-3" d="M 465.9 251.8 Q 466.5 250.2, 468.0 249.3 Q 469.5 248.4, 471.5 248.4 Q 474.1 248.4, 475.5 249.8 Q 477.0 251.2, 477.0 253.7 Q 477.0 256.2, 475.1 258.5 Q 473.3 260.9, 469.4 263.7 L 477.3 263.7 L 477.3 265.6 L 465.8 265.6 L 465.8 264.0 Q 469.0 261.7, 470.9 260.0 Q 472.8 258.4, 473.7 256.9 Q 474.6 255.4, 474.6 253.8 Q 474.6 252.2, 473.8 251.3 Q 473.0 250.3, 471.5 250.3 Q 470.2 250.3, 469.3 250.9 Q 468.4 251.4, 467.7 252.7 L 465.9 251.8 " fill="#191919"/>
<path class="atom-4" d="M 299.7 203.4 L 305.2 212.4 Q 305.8 213.3, 306.7 214.9 Q 307.5 216.5, 307.6 216.6 L 307.6 203.4 L 309.8 203.4 L 309.8 220.4 L 307.5 220.4 L 301.5 210.5 Q 300.9 209.4, 300.1 208.1 Q 299.4 206.7, 299.2 206.3 L 299.2 220.4 L 297.0 220.4 L 297.0 203.4 L 299.7 203.4 " fill="#0000FF"/>
<path class="atom-4" d="M 296.8 184.7 L 299.1 184.7 L 299.1 191.9 L 307.7 191.9 L 307.7 184.7 L 310.0 184.7 L 310.0 201.7 L 307.7 201.7 L 307.7 193.9 L 299.1 193.9 L 299.1 201.7 L 296.8 201.7 L 296.8 184.7 " fill="#0000FF"/>
<path class="atom-9" d="M 23.5 214.4 L 26.0 211.8 L 22.7 211.2 L 23.2 209.5 L 26.3 211.0 L 25.8 207.7 L 27.6 207.6 L 27.1 211.0 L 30.2 209.5 L 30.8 211.2 L 27.4 211.8 L 29.8 214.4 L 28.3 215.4 L 26.7 212.2 L 25.0 215.4 L 23.5 214.4 " fill="#191919"/>
<path class="atom-9" d="M 32.2 222.1 L 34.6 222.1 L 34.6 224.5 L 32.2 224.5 L 32.2 222.1 M 32.2 213.9 L 34.6 213.9 L 34.6 216.3 L 32.2 216.3 L 32.2 213.9 " fill="#191919"/>
<path class="atom-9" d="M 38.0 223.0 L 41.7 223.0 L 41.7 210.3 L 37.6 211.6 L 37.1 210.2 L 42.3 207.8 L 44.0 208.1 L 44.0 223.0 L 47.3 223.0 L 47.3 224.9 L 38.0 224.9 L 38.0 223.0 " fill="#191919"/>
</svg>