<svg xmlns="http://www.w3.org/2000/svg" xmlns:rdkit="http://www.rdkit.org/xml" xmlns:xlink="http://www.w3.org/1999/xlink" version="1.1" baseProfile="full" xml:space="preserve" width="500px" height="500px" viewBox="0 0 500 500">
<!-- END OF HEADER -->
<rect style="opacity:1.0;fill:#FFFFFF;stroke:none" width="500.0" height="500.0" x="0.0" y="0.0"> </rect>
<path class="bond-0 atom-0 atom-1" d="M 63.6,352.6 L 81.5,348.4" style="fill:none;fill-rule:evenodd;stroke:#FF0000;stroke-width:2.0px;stroke-linecap:butt;stroke-linejoin:miter;stroke-opacity:1"/>
<path class="bond-0 atom-0 atom-1" d="M 81.5,348.4 L 99.4,344.3" style="fill:none;fill-rule:evenodd;stroke:#000000;stroke-width:2.0px;stroke-linecap:butt;stroke-linejoin:miter;stroke-opacity:1"/>
<path class="bond-0 atom-0 atom-1" d="M 65.1,358.7 L 82.9,354.6" style="fill:none;fill-rule:evenodd;stroke:#FF0000;stroke-width:2.0px;stroke-linecap:butt;stroke-linejoin:miter;stroke-opacity:1"/>
<path class="bond-0 atom-0 atom-1" d="M 82.9,354.6 L 100.8,350.4" style="fill:none;fill-rule:evenodd;stroke:#000000;stroke-width:2.0px;stroke-linecap:butt;stroke-linejoin:miter;stroke-opacity:1"/>
<path class="bond-1 atom-1 atom-2" d="M 98.3,347.8 L 126.9,378.4" style="fill:none;fill-rule:evenodd;stroke:#000000;stroke-width:2.0px;stroke-linecap:butt;stroke-linejoin:miter;stroke-opacity:1"/>
<path class="bond-2 atom-2 atom-3" d="M 126.9,378.4 L 167.7,368.9" style="fill:none;fill-rule:evenodd;stroke:#000000;stroke-width:2.0px;stroke-linecap:butt;stroke-linejoin:miter;stroke-opacity:1"/>
<path class="bond-2 atom-2 atom-3" d="M 129.0,371.4 L 162.7,363.6" style="fill:none;fill-rule:evenodd;stroke:#000000;stroke-width:2.0px;stroke-linecap:butt;stroke-linejoin:miter;stroke-opacity:1"/>
<path class="bond-3 atom-3 atom-4" d="M 167.7,368.9 L 179.9,328.9" style="fill:none;fill-rule:evenodd;stroke:#000000;stroke-width:2.0px;stroke-linecap:butt;stroke-linejoin:miter;stroke-opacity:1"/>
<path class="bond-4 atom-4 atom-5" d="M 179.9,328.9 L 220.6,319.5" style="fill:none;fill-rule:evenodd;stroke:#000000;stroke-width:2.0px;stroke-linecap:butt;stroke-linejoin:miter;stroke-opacity:1"/>
<path class="bond-4 atom-4 atom-5" d="M 182.0,322.0 L 215.7,314.2" style="fill:none;fill-rule:evenodd;stroke:#000000;stroke-width:2.0px;stroke-linecap:butt;stroke-linejoin:miter;stroke-opacity:1"/>
<path class="bond-5 atom-5 atom-6" d="M 220.6,319.5 L 225.6,303.1" style="fill:none;fill-rule:evenodd;stroke:#000000;stroke-width:2.0px;stroke-linecap:butt;stroke-linejoin:miter;stroke-opacity:1"/>
<path class="bond-5 atom-5 atom-6" d="M 225.6,303.1 L 230.6,286.8" style="fill:none;fill-rule:evenodd;stroke:#0000FF;stroke-width:2.0px;stroke-linecap:butt;stroke-linejoin:miter;stroke-opacity:1"/>
<path class="bond-6 atom-6 atom-7" d="M 227.0,273.2 L 215.7,261.0" style="fill:none;fill-rule:evenodd;stroke:#0000FF;stroke-width:2.0px;stroke-linecap:butt;stroke-linejoin:miter;stroke-opacity:1"/>
<path class="bond-6 atom-6 atom-7" d="M 215.7,261.0 L 204.3,248.9" style="fill:none;fill-rule:evenodd;stroke:#000000;stroke-width:2.0px;stroke-linecap:butt;stroke-linejoin:miter;stroke-opacity:1"/>
<path class="bond-6 atom-6 atom-7" d="M 222.4,277.4 L 212.3,266.6" style="fill:none;fill-rule:evenodd;stroke:#0000FF;stroke-width:2.0px;stroke-linecap:butt;stroke-linejoin:miter;stroke-opacity:1"/>
<path class="bond-6 atom-6 atom-7" d="M 212.3,266.6 L 202.2,255.8" style="fill:none;fill-rule:evenodd;stroke:#000000;stroke-width:2.0px;stroke-linecap:butt;stroke-linejoin:miter;stroke-opacity:1"/>
<path class="bond-7 atom-7 atom-8" d="M 204.3,248.9 L 209.3,232.5" style="fill:none;fill-rule:evenodd;stroke:#000000;stroke-width:2.0px;stroke-linecap:butt;stroke-linejoin:miter;stroke-opacity:1"/>
<path class="bond-7 atom-7 atom-8" d="M 209.3,232.5 L 214.3,216.1" style="fill:none;fill-rule:evenodd;stroke:#0000FF;stroke-width:2.0px;stroke-linecap:butt;stroke-linejoin:miter;stroke-opacity:1"/>
<path class="bond-8 atom-8 atom-9" d="M 222.4,207.5 L 239.9,203.4" style="fill:none;fill-rule:evenodd;stroke:#0000FF;stroke-width:2.0px;stroke-linecap:butt;stroke-linejoin:miter;stroke-opacity:1"/>
<path class="bond-8 atom-8 atom-9" d="M 239.9,203.4 L 257.3,199.4" style="fill:none;fill-rule:evenodd;stroke:#000000;stroke-width:2.0px;stroke-linecap:butt;stroke-linejoin:miter;stroke-opacity:1"/>
<path class="bond-9 atom-9 atom-10" d="M 257.3,199.4 L 285.9,230.0" style="fill:none;fill-rule:evenodd;stroke:#000000;stroke-width:2.0px;stroke-linecap:butt;stroke-linejoin:miter;stroke-opacity:1"/>
<path class="bond-9 atom-9 atom-10" d="M 264.4,197.8 L 288.0,223.1" style="fill:none;fill-rule:evenodd;stroke:#000000;stroke-width:2.0px;stroke-linecap:butt;stroke-linejoin:miter;stroke-opacity:1"/>
<path class="bond-10 atom-10 atom-11" d="M 285.9,230.0 L 326.6,220.6" style="fill:none;fill-rule:evenodd;stroke:#000000;stroke-width:2.0px;stroke-linecap:butt;stroke-linejoin:miter;stroke-opacity:1"/>
<path class="bond-11 atom-11 atom-12" d="M 326.6,220.6 L 338.9,180.5" style="fill:none;fill-rule:evenodd;stroke:#000000;stroke-width:2.0px;stroke-linecap:butt;stroke-linejoin:miter;stroke-opacity:1"/>
<path class="bond-11 atom-11 atom-12" d="M 321.7,215.3 L 331.8,182.2" style="fill:none;fill-rule:evenodd;stroke:#000000;stroke-width:2.0px;stroke-linecap:butt;stroke-linejoin:miter;stroke-opacity:1"/>
<path class="bond-12 atom-12 atom-13" d="M 338.9,180.5 L 356.3,176.5" style="fill:none;fill-rule:evenodd;stroke:#000000;stroke-width:2.0px;stroke-linecap:butt;stroke-linejoin:miter;stroke-opacity:1"/>
<path class="bond-12 atom-12 atom-13" d="M 356.3,176.5 L 373.8,172.4" style="fill:none;fill-rule:evenodd;stroke:#0000FF;stroke-width:2.0px;stroke-linecap:butt;stroke-linejoin:miter;stroke-opacity:1"/>
<path class="bond-13 atom-13 atom-14" d="M 385.5,177.4 L 396.9,189.5" style="fill:none;fill-rule:evenodd;stroke:#0000FF;stroke-width:2.0px;stroke-linecap:butt;stroke-linejoin:miter;stroke-opacity:1"/>
<path class="bond-13 atom-13 atom-14" d="M 396.9,189.5 L 408.2,201.7" style="fill:none;fill-rule:evenodd;stroke:#000000;stroke-width:2.0px;stroke-linecap:butt;stroke-linejoin:miter;stroke-opacity:1"/>
<path class="bond-14 atom-14 atom-15" d="M 408.2,201.7 L 449.0,192.3" style="fill:none;fill-rule:evenodd;stroke:#000000;stroke-width:2.0px;stroke-linecap:butt;stroke-linejoin:miter;stroke-opacity:1"/>
<path class="bond-15 atom-15 atom-16" d="M 449.0,192.3 L 454.0,175.9" style="fill:none;fill-rule:evenodd;stroke:#000000;stroke-width:2.0px;stroke-linecap:butt;stroke-linejoin:miter;stroke-opacity:1"/>
<path class="bond-15 atom-15 atom-16" d="M 454.0,175.9 L 459.0,159.5" style="fill:none;fill-rule:evenodd;stroke:#0000FF;stroke-width:2.0px;stroke-linecap:butt;stroke-linejoin:miter;stroke-opacity:1"/>
<path class="bond-16 atom-16 atom-17" d="M 455.3,145.9 L 444.0,133.8" style="fill:none;fill-rule:evenodd;stroke:#0000FF;stroke-width:2.0px;stroke-linecap:butt;stroke-linejoin:miter;stroke-opacity:1"/>
<path class="bond-16 atom-16 atom-17" d="M 444.0,133.8 L 432.6,121.6" style="fill:none;fill-rule:evenodd;stroke:#000000;stroke-width:2.0px;stroke-linecap:butt;stroke-linejoin:miter;stroke-opacity:1"/>
<path class="bond-17 atom-17 atom-18" d="M 432.6,121.6 L 391.9,131.1" style="fill:none;fill-rule:evenodd;stroke:#000000;stroke-width:2.0px;stroke-linecap:butt;stroke-linejoin:miter;stroke-opacity:1"/>
<path class="bond-18 atom-12 atom-19" d="M 338.9,180.5 L 310.3,149.9" style="fill:none;fill-rule:evenodd;stroke:#000000;stroke-width:2.0px;stroke-linecap:butt;stroke-linejoin:miter;stroke-opacity:1"/>
<path class="bond-19 atom-19 atom-20" d="M 310.3,149.9 L 292.9,154.0" style="fill:none;fill-rule:evenodd;stroke:#000000;stroke-width:2.0px;stroke-linecap:butt;stroke-linejoin:miter;stroke-opacity:1"/>
<path class="bond-19 atom-19 atom-20" d="M 292.9,154.0 L 275.4,158.0" style="fill:none;fill-rule:evenodd;stroke:#0000FF;stroke-width:2.0px;stroke-linecap:butt;stroke-linejoin:miter;stroke-opacity:1"/>
<path class="bond-19 atom-19 atom-20" d="M 308.2,156.9 L 292.5,160.5" style="fill:none;fill-rule:evenodd;stroke:#000000;stroke-width:2.0px;stroke-linecap:butt;stroke-linejoin:miter;stroke-opacity:1"/>
<path class="bond-19 atom-19 atom-20" d="M 292.5,160.5 L 276.8,164.1" style="fill:none;fill-rule:evenodd;stroke:#0000FF;stroke-width:2.0px;stroke-linecap:butt;stroke-linejoin:miter;stroke-opacity:1"/>
<path class="bond-20 atom-7 atom-21" d="M 204.3,248.9 L 186.9,252.9" style="fill:none;fill-rule:evenodd;stroke:#000000;stroke-width:2.0px;stroke-linecap:butt;stroke-linejoin:miter;stroke-opacity:1"/>
<path class="bond-20 atom-7 atom-21" d="M 186.9,252.9 L 169.4,256.9" style="fill:none;fill-rule:evenodd;stroke:#0000FF;stroke-width:2.0px;stroke-linecap:butt;stroke-linejoin:miter;stroke-opacity:1"/>
<path class="bond-21 atom-21 atom-22" d="M 161.3,265.6 L 156.3,282.0" style="fill:none;fill-rule:evenodd;stroke:#0000FF;stroke-width:2.0px;stroke-linecap:butt;stroke-linejoin:miter;stroke-opacity:1"/>
<path class="bond-21 atom-21 atom-22" d="M 156.3,282.0 L 151.3,298.3" style="fill:none;fill-rule:evenodd;stroke:#000000;stroke-width:2.0px;stroke-linecap:butt;stroke-linejoin:miter;stroke-opacity:1"/>
<path class="bond-21 atom-21 atom-22" d="M 167.3,267.4 L 162.8,282.1" style="fill:none;fill-rule:evenodd;stroke:#0000FF;stroke-width:2.0px;stroke-linecap:butt;stroke-linejoin:miter;stroke-opacity:1"/>
<path class="bond-21 atom-21 atom-22" d="M 162.8,282.1 L 158.4,296.7" style="fill:none;fill-rule:evenodd;stroke:#000000;stroke-width:2.0px;stroke-linecap:butt;stroke-linejoin:miter;stroke-opacity:1"/>
<path class="bond-22 atom-22 atom-23" d="M 151.3,298.3 L 133.9,302.4" style="fill:none;fill-rule:evenodd;stroke:#000000;stroke-width:2.0px;stroke-linecap:butt;stroke-linejoin:miter;stroke-opacity:1"/>
<path class="bond-22 atom-22 atom-23" d="M 133.9,302.4 L 116.4,306.4" style="fill:none;fill-rule:evenodd;stroke:#0000FF;stroke-width:2.0px;stroke-linecap:butt;stroke-linejoin:miter;stroke-opacity:1"/>
<path class="bond-23 atom-23 atom-24" d="M 104.7,301.5 L 93.3,289.3" style="fill:none;fill-rule:evenodd;stroke:#0000FF;stroke-width:2.0px;stroke-linecap:butt;stroke-linejoin:miter;stroke-opacity:1"/>
<path class="bond-23 atom-23 atom-24" d="M 93.3,289.3 L 82.0,277.2" style="fill:none;fill-rule:evenodd;stroke:#000000;stroke-width:2.0px;stroke-linecap:butt;stroke-linejoin:miter;stroke-opacity:1"/>
<path class="bond-24 atom-24 atom-25" d="M 82.0,277.2 L 40.4,282.3" style="fill:none;fill-rule:evenodd;stroke:#000000;stroke-width:2.0px;stroke-linecap:butt;stroke-linejoin:miter;stroke-opacity:1"/>
<path class="bond-25 atom-25 atom-26" d="M 40.4,282.3 L 22.7,244.3" style="fill:none;fill-rule:evenodd;stroke:#000000;stroke-width:2.0px;stroke-linecap:butt;stroke-linejoin:miter;stroke-opacity:1"/>
<path class="bond-26 atom-26 atom-27" d="M 22.7,244.3 L 53.3,215.8" style="fill:none;fill-rule:evenodd;stroke:#000000;stroke-width:2.0px;stroke-linecap:butt;stroke-linejoin:miter;stroke-opacity:1"/>
<path class="bond-27 atom-27 atom-28" d="M 53.3,215.8 L 89.9,236.1" style="fill:none;fill-rule:evenodd;stroke:#000000;stroke-width:2.0px;stroke-linecap:butt;stroke-linejoin:miter;stroke-opacity:1"/>
<path class="bond-28 atom-23 atom-1" d="M 108.3,315.1 L 103.3,331.4" style="fill:none;fill-rule:evenodd;stroke:#0000FF;stroke-width:2.0px;stroke-linecap:butt;stroke-linejoin:miter;stroke-opacity:1"/>
<path class="bond-28 atom-23 atom-1" d="M 103.3,331.4 L 98.3,347.8" style="fill:none;fill-rule:evenodd;stroke:#000000;stroke-width:2.0px;stroke-linecap:butt;stroke-linejoin:miter;stroke-opacity:1"/>
<path class="bond-29 atom-28 atom-24" d="M 89.9,236.1 L 82.0,277.2" style="fill:none;fill-rule:evenodd;stroke:#000000;stroke-width:2.0px;stroke-linecap:butt;stroke-linejoin:miter;stroke-opacity:1"/>
<path class="bond-30 atom-22 atom-4" d="M 151.3,298.3 L 179.9,328.9" style="fill:none;fill-rule:evenodd;stroke:#000000;stroke-width:2.0px;stroke-linecap:butt;stroke-linejoin:miter;stroke-opacity:1"/>
<path class="bond-31 atom-20 atom-9" d="M 267.3,166.7 L 262.3,183.0" style="fill:none;fill-rule:evenodd;stroke:#0000FF;stroke-width:2.0px;stroke-linecap:butt;stroke-linejoin:miter;stroke-opacity:1"/>
<path class="bond-31 atom-20 atom-9" d="M 262.3,183.0 L 257.3,199.4" style="fill:none;fill-rule:evenodd;stroke:#000000;stroke-width:2.0px;stroke-linecap:butt;stroke-linejoin:miter;stroke-opacity:1"/>
<path class="bond-32 atom-18 atom-13" d="M 391.9,131.1 L 386.9,147.4" style="fill:none;fill-rule:evenodd;stroke:#000000;stroke-width:2.0px;stroke-linecap:butt;stroke-linejoin:miter;stroke-opacity:1"/>
<path class="bond-32 atom-18 atom-13" d="M 386.9,147.4 L 381.9,163.8" style="fill:none;fill-rule:evenodd;stroke:#0000FF;stroke-width:2.0px;stroke-linecap:butt;stroke-linejoin:miter;stroke-opacity:1"/>
<path d="M 99.7,349.3 L 98.3,347.8 L 98.6,347.0" style="fill:none;stroke:#000000;stroke-width:2.0px;stroke-linecap:butt;stroke-linejoin:miter;stroke-opacity:1;"/>
<path d="M 125.4,376.9 L 126.9,378.4 L 128.9,377.9" style="fill:none;stroke:#000000;stroke-width:2.0px;stroke-linecap:butt;stroke-linejoin:miter;stroke-opacity:1;"/>
<path d="M 165.6,369.4 L 167.7,368.9 L 168.3,366.9" style="fill:none;stroke:#000000;stroke-width:2.0px;stroke-linecap:butt;stroke-linejoin:miter;stroke-opacity:1;"/>
<path d="M 218.6,320.0 L 220.6,319.5 L 220.9,318.7" style="fill:none;stroke:#000000;stroke-width:2.0px;stroke-linecap:butt;stroke-linejoin:miter;stroke-opacity:1;"/>
<path d="M 284.4,228.5 L 285.9,230.0 L 287.9,229.5" style="fill:none;stroke:#000000;stroke-width:2.0px;stroke-linecap:butt;stroke-linejoin:miter;stroke-opacity:1;"/>
<path d="M 324.6,221.0 L 326.6,220.6 L 327.3,218.5" style="fill:none;stroke:#000000;stroke-width:2.0px;stroke-linecap:butt;stroke-linejoin:miter;stroke-opacity:1;"/>
<path d="M 407.6,201.1 L 408.2,201.7 L 410.2,201.2" style="fill:none;stroke:#000000;stroke-width:2.0px;stroke-linecap:butt;stroke-linejoin:miter;stroke-opacity:1;"/>
<path d="M 446.9,192.7 L 449.0,192.3 L 449.2,191.4" style="fill:none;stroke:#000000;stroke-width:2.0px;stroke-linecap:butt;stroke-linejoin:miter;stroke-opacity:1;"/>
<path d="M 433.2,122.2 L 432.6,121.6 L 430.6,122.1" style="fill:none;stroke:#000000;stroke-width:2.0px;stroke-linecap:butt;stroke-linejoin:miter;stroke-opacity:1;"/>
<path d="M 393.9,130.6 L 391.9,131.1 L 391.6,131.9" style="fill:none;stroke:#000000;stroke-width:2.0px;stroke-linecap:butt;stroke-linejoin:miter;stroke-opacity:1;"/>
<path d="M 311.7,151.5 L 310.3,149.9 L 309.4,150.1" style="fill:none;stroke:#000000;stroke-width:2.0px;stroke-linecap:butt;stroke-linejoin:miter;stroke-opacity:1;"/>
<path d="M 42.5,282.0 L 40.4,282.3 L 39.5,280.4" style="fill:none;stroke:#000000;stroke-width:2.0px;stroke-linecap:butt;stroke-linejoin:miter;stroke-opacity:1;"/>
<path d="M 23.6,246.2 L 22.7,244.3 L 24.3,242.9" style="fill:none;stroke:#000000;stroke-width:2.0px;stroke-linecap:butt;stroke-linejoin:miter;stroke-opacity:1;"/>
<path d="M 51.8,217.2 L 53.3,215.8 L 55.2,216.8" style="fill:none;stroke:#000000;stroke-width:2.0px;stroke-linecap:butt;stroke-linejoin:miter;stroke-opacity:1;"/>
<path d="M 88.1,235.0 L 89.9,236.1 L 89.5,238.1" style="fill:none;stroke:#000000;stroke-width:2.0px;stroke-linecap:butt;stroke-linejoin:miter;stroke-opacity:1;"/>
<path class="atom-0" d="M 52.1 357.2 Q 52.1 354.4, 53.5 352.8 Q 54.9 351.2, 57.5 351.2 Q 60.2 351.2, 61.6 352.8 Q 63.0 354.4, 63.0 357.2 Q 63.0 360.1, 61.6 361.8 Q 60.1 363.4, 57.5 363.4 Q 54.9 363.4, 53.5 361.8 Q 52.1 360.1, 52.1 357.2 M 57.5 362.1 Q 59.3 362.1, 60.3 360.8 Q 61.3 359.6, 61.3 357.2 Q 61.3 354.9, 60.3 353.7 Q 59.3 352.6, 57.5 352.6 Q 55.7 352.6, 54.7 353.7 Q 53.8 354.9, 53.8 357.2 Q 53.8 359.6, 54.7 360.8 Q 55.7 362.1, 57.5 362.1 " fill="#FF0000"/>
<path class="atom-6" d="M 230.2 273.5 L 234.1 279.8 Q 234.5 280.4, 235.1 281.5 Q 235.8 282.7, 235.8 282.7 L 235.8 273.5 L 237.4 273.5 L 237.4 285.4 L 235.7 285.4 L 231.6 278.5 Q 231.1 277.7, 230.6 276.8 Q 230.1 275.9, 229.9 275.6 L 229.9 285.4 L 228.4 285.4 L 228.4 273.5 L 230.2 273.5 " fill="#0000FF"/>
<path class="atom-8" d="M 200.4 202.9 L 202.0 202.9 L 202.0 207.9 L 208.1 207.9 L 208.1 202.9 L 209.7 202.9 L 209.7 214.7 L 208.1 214.7 L 208.1 209.3 L 202.0 209.3 L 202.0 214.7 L 200.4 214.7 L 200.4 202.9 " fill="#0000FF"/>
<path class="atom-8" d="M 213.9 202.9 L 217.8 209.2 Q 218.2 209.8, 218.8 210.9 Q 219.4 212.0, 219.5 212.1 L 219.5 202.9 L 221.0 202.9 L 221.0 214.7 L 219.4 214.7 L 215.2 207.9 Q 214.7 207.1, 214.2 206.2 Q 213.7 205.2, 213.6 205.0 L 213.6 214.7 L 212.0 214.7 L 212.0 202.9 L 213.9 202.9 " fill="#0000FF"/>
<path class="atom-13" d="M 377.0 165.2 L 380.9 171.4 Q 381.3 172.1, 381.9 173.2 Q 382.5 174.3, 382.6 174.4 L 382.6 165.2 L 384.1 165.2 L 384.1 177.0 L 382.5 177.0 L 378.3 170.1 Q 377.9 169.3, 377.3 168.4 Q 376.8 167.5, 376.7 167.2 L 376.7 177.0 L 375.1 177.0 L 375.1 165.2 L 377.0 165.2 " fill="#0000FF"/>
<path class="atom-16" d="M 458.6 146.3 L 462.5 152.6 Q 462.8 153.2, 463.5 154.3 Q 464.1 155.4, 464.1 155.5 L 464.1 146.3 L 465.7 146.3 L 465.7 158.1 L 464.1 158.1 L 459.9 151.3 Q 459.4 150.5, 458.9 149.6 Q 458.4 148.6, 458.2 148.4 L 458.2 158.1 L 456.7 158.1 L 456.7 146.3 L 458.6 146.3 " fill="#0000FF"/>
<path class="atom-16" d="M 468.0 146.3 L 469.6 146.3 L 469.6 151.3 L 475.7 151.3 L 475.7 146.3 L 477.3 146.3 L 477.3 158.1 L 475.7 158.1 L 475.7 152.7 L 469.6 152.7 L 469.6 158.1 L 468.0 158.1 L 468.0 146.3 " fill="#0000FF"/>
<path class="atom-20" d="M 266.9 153.4 L 270.8 159.7 Q 271.2 160.3, 271.8 161.4 Q 272.4 162.6, 272.4 162.6 L 272.4 153.4 L 274.0 153.4 L 274.0 165.3 L 272.4 165.3 L 268.2 158.4 Q 267.7 157.6, 267.2 156.7 Q 266.7 155.8, 266.6 155.5 L 266.6 165.3 L 265.0 165.3 L 265.0 153.4 L 266.9 153.4 " fill="#0000FF"/>
<path class="atom-21" d="M 160.9 252.4 L 164.8 258.6 Q 165.2 259.3, 165.8 260.4 Q 166.4 261.5, 166.5 261.6 L 166.5 252.4 L 168.0 252.4 L 168.0 264.2 L 166.4 264.2 L 162.2 257.3 Q 161.7 256.5, 161.2 255.6 Q 160.7 254.7, 160.6 254.4 L 160.6 264.2 L 159.0 264.2 L 159.0 252.4 L 160.9 252.4 " fill="#0000FF"/>
<path class="atom-23" d="M 107.9 301.8 L 111.8 308.1 Q 112.2 308.7, 112.8 309.8 Q 113.4 311.0, 113.5 311.0 L 113.5 301.8 L 115.0 301.8 L 115.0 313.7 L 113.4 313.7 L 109.2 306.8 Q 108.7 306.0, 108.2 305.1 Q 107.7 304.2, 107.6 303.9 L 107.6 313.7 L 106.0 313.7 L 106.0 301.8 L 107.9 301.8 " fill="#0000FF"/>
</svg>