<?xml version="1.0" encoding="utf-8" standalone="no"?>
<!DOCTYPE svg PUBLIC "-//W3C//DTD SVG 1.1//EN"
  "http://www.w3.org/Graphics/SVG/1.1/DTD/svg11.dtd">
<svg xmlns:xlink="http://www.w3.org/1999/xlink" width="453.03054pt" height="337.59625pt" viewBox="0 0 453.03054 337.59625" xmlns="http://www.w3.org/2000/svg" version="1.1">
 <metadata>
  <rdf:RDF xmlns:dc="http://purl.org/dc/elements/1.1/" xmlns:cc="http://creativecommons.org/ns#" xmlns:rdf="http://www.w3.org/1999/02/22-rdf-syntax-ns#">
   <cc:Work>
    <dc:type rdf:resource="http://purl.org/dc/dcmitype/StillImage"/>
    <dc:date>2024-05-02T19:57:10.784327</dc:date>
    <dc:format>image/svg+xml</dc:format>
    <dc:creator>
     <cc:Agent>
      <dc:title>Matplotlib v3.8.0, https://matplotlib.org/</dc:title>
     </cc:Agent>
    </dc:creator>
   </cc:Work>
  </rdf:RDF>
 </metadata>
 <defs>
  <style type="text/css">*{stroke-linejoin: round; stroke-linecap: butt}</style>
 </defs>
 <g id="figure_1">
  <g id="patch_1">
   <path d="M 0 337.59625 
L 453.03054 337.59625 
L 453.03054 0 
L 0 0 
z
" style="fill: #ffffff"/>
  </g>
  <g id="axes_1">
   <g id="patch_2">
    <path d="M 40.603125 300.04 
L 437.006619 300.04 
L 437.006619 7.2 
L 40.603125 7.2 
z
" style="fill: #ffffff"/>
   </g>
   <g id="patch_3">
    <path d="M 58.621466 300.04 
L 60.204336 300.04 
L 60.204336 222.569101 
L 58.621466 222.569101 
z
" clip-path="url(#p29d3ecf819)" style="fill: #006400"/>
   </g>
   <g id="patch_4">
    <path d="M 60.128961 300.04 
L 61.711832 300.04 
L 61.711832 269.05164 
L 60.128961 269.05164 
z
" clip-path="url(#p29d3ecf819)" style="fill: #006400"/>
   </g>
   <g id="patch_5">
    <path d="M 61.636457 300.04 
L 63.219327 300.04 
L 63.219327 253.55746 
L 61.636457 253.55746 
z
" clip-path="url(#p29d3ecf819)" style="fill: #006400"/>
   </g>
   <g id="patch_6">
    <path d="M 63.143952 300.04 
L 64.726823 300.04 
L 64.726823 253.55746 
L 63.143952 253.55746 
z
" clip-path="url(#p29d3ecf819)" style="fill: #006400"/>
   </g>
   <g id="patch_7">
    <path d="M 64.651448 300.04 
L 66.234318 300.04 
L 66.234318 253.55746 
L 64.651448 253.55746 
z
" clip-path="url(#p29d3ecf819)" style="fill: #006400"/>
   </g>
   <g id="patch_8">
    <path d="M 66.158943 300.04 
L 67.741814 300.04 
L 67.741814 222.569101 
L 66.158943 222.569101 
z
" clip-path="url(#p29d3ecf819)" style="fill: #90ee90"/>
   </g>
   <g id="patch_9">
    <path d="M 67.666439 300.04 
L 69.249309 300.04 
L 69.249309 238.06328 
L 67.666439 238.06328 
z
" clip-path="url(#p29d3ecf819)" style="fill: #90ee90"/>
   </g>
   <g id="patch_10">
    <path d="M 69.173935 300.04 
L 70.756805 300.04 
L 70.756805 253.55746 
L 69.173935 253.55746 
z
" clip-path="url(#p29d3ecf819)" style="fill: #90ee90"/>
   </g>
   <g id="patch_11">
    <path d="M 70.68143 300.04 
L 72.2643 300.04 
L 72.2643 284.54582 
L 70.68143 284.54582 
z
" clip-path="url(#p29d3ecf819)" style="fill: #006400"/>
   </g>
   <g id="patch_12">
    <path d="M 72.188926 300.04 
L 73.771796 300.04 
L 73.771796 238.06328 
L 72.188926 238.06328 
z
" clip-path="url(#p29d3ecf819)" style="fill: #006400"/>
   </g>
   <g id="patch_13">
    <path d="M 73.696421 300.04 
L 75.279292 300.04 
L 75.279292 284.54582 
L 73.696421 284.54582 
z
" clip-path="url(#p29d3ecf819)" style="fill: #006400"/>
   </g>
   <g id="patch_14">
    <path d="M 75.203917 300.04 
L 76.786787 300.04 
L 76.786787 238.06328 
L 75.203917 238.06328 
z
" clip-path="url(#p29d3ecf819)" style="fill: #006400"/>
   </g>
   <g id="patch_15">
    <path d="M 76.711412 300.04 
L 78.294283 300.04 
L 78.294283 269.05164 
L 76.711412 269.05164 
z
" clip-path="url(#p29d3ecf819)" style="fill: #006400"/>
   </g>
   <g id="patch_16">
    <path d="M 78.218908 300.04 
L 79.801778 300.04 
L 79.801778 253.55746 
L 78.218908 253.55746 
z
" clip-path="url(#p29d3ecf819)" style="fill: #006400"/>
   </g>
   <g id="patch_17">
    <path d="M 79.726403 300.04 
L 81.309274 300.04 
L 81.309274 191.580741 
L 79.726403 191.580741 
z
" clip-path="url(#p29d3ecf819)" style="fill: #90ee90"/>
   </g>
   <g id="patch_18">
    <path d="M 81.233899 300.04 
L 82.816769 300.04 
L 82.816769 207.074921 
L 81.233899 207.074921 
z
" clip-path="url(#p29d3ecf819)" style="fill: #90ee90"/>
   </g>
   <g id="patch_19">
    <path d="M 82.741395 300.04 
L 84.324265 300.04 
L 84.324265 269.05164 
L 82.741395 269.05164 
z
" clip-path="url(#p29d3ecf819)" style="fill: #006400"/>
   </g>
   <g id="patch_20">
    <path d="M 84.24889 300.04 
L 85.83176 300.04 
L 85.83176 284.54582 
L 84.24889 284.54582 
z
" clip-path="url(#p29d3ecf819)" style="fill: #006400"/>
   </g>
   <g id="patch_21">
    <path d="M 85.756386 300.04 
L 87.339256 300.04 
L 87.339256 284.54582 
L 85.756386 284.54582 
z
" clip-path="url(#p29d3ecf819)" style="fill: #006400"/>
   </g>
   <g id="patch_22">
    <path d="M 87.263881 300.04 
L 88.846752 300.04 
L 88.846752 284.54582 
L 87.263881 284.54582 
z
" clip-path="url(#p29d3ecf819)" style="fill: #006400"/>
   </g>
   <g id="patch_23">
    <path d="M 88.771377 300.04 
L 90.354247 300.04 
L 90.354247 269.05164 
L 88.771377 269.05164 
z
" clip-path="url(#p29d3ecf819)" style="fill: #006400"/>
   </g>
   <g id="patch_24">
    <path d="M 90.278872 300.04 
L 91.861743 300.04 
L 91.861743 284.54582 
L 90.278872 284.54582 
z
" clip-path="url(#p29d3ecf819)" style="fill: #006400"/>
   </g>
   <g id="patch_25">
    <path d="M 91.786368 300.04 
L 93.369238 300.04 
L 93.369238 284.54582 
L 91.786368 284.54582 
z
" clip-path="url(#p29d3ecf819)" style="fill: #006400"/>
   </g>
   <g id="patch_26">
    <path d="M 93.293863 300.04 
L 94.876734 300.04 
L 94.876734 284.54582 
L 93.293863 284.54582 
z
" clip-path="url(#p29d3ecf819)" style="fill: #006400"/>
   </g>
   <g id="patch_27">
    <path d="M 94.801359 300.04 
L 96.384229 300.04 
L 96.384229 284.54582 
L 94.801359 284.54582 
z
" clip-path="url(#p29d3ecf819)" style="fill: #006400"/>
   </g>
   <g id="patch_28">
    <path d="M 96.308855 300.04 
L 97.891725 300.04 
L 97.891725 284.54582 
L 96.308855 284.54582 
z
" clip-path="url(#p29d3ecf819)" style="fill: #006400"/>
   </g>
   <g id="patch_29">
    <path d="M 97.81635 300.04 
L 99.39922 300.04 
L 99.39922 284.54582 
L 97.81635 284.54582 
z
" clip-path="url(#p29d3ecf819)" style="fill: #006400"/>
   </g>
   <g id="patch_30">
    <path d="M 99.323846 300.04 
L 100.906716 300.04 
L 100.906716 284.54582 
L 99.323846 284.54582 
z
" clip-path="url(#p29d3ecf819)" style="fill: #006400"/>
   </g>
   <g id="patch_31">
    <path d="M 100.831341 300.04 
L 102.414212 300.04 
L 102.414212 284.54582 
L 100.831341 284.54582 
z
" clip-path="url(#p29d3ecf819)" style="fill: #006400"/>
   </g>
   <g id="patch_32">
    <path d="M 102.338837 300.04 
L 103.921707 300.04 
L 103.921707 284.54582 
L 102.338837 284.54582 
z
" clip-path="url(#p29d3ecf819)" style="fill: #006400"/>
   </g>
   <g id="patch_33">
    <path d="M 103.846332 300.04 
L 105.429203 300.04 
L 105.429203 238.06328 
L 103.846332 238.06328 
z
" clip-path="url(#p29d3ecf819)" style="fill: #006400"/>
   </g>
   <g id="patch_34">
    <path d="M 105.353828 300.04 
L 106.936698 300.04 
L 106.936698 284.54582 
L 105.353828 284.54582 
z
" clip-path="url(#p29d3ecf819)" style="fill: #006400"/>
   </g>
   <g id="patch_35">
    <path d="M 106.861323 300.04 
L 108.444194 300.04 
L 108.444194 284.54582 
L 106.861323 284.54582 
z
" clip-path="url(#p29d3ecf819)" style="fill: #006400"/>
   </g>
   <g id="patch_36">
    <path d="M 108.368819 300.04 
L 109.951689 300.04 
L 109.951689 284.54582 
L 108.368819 284.54582 
z
" clip-path="url(#p29d3ecf819)" style="fill: #006400"/>
   </g>
   <g id="patch_37">
    <path d="M 109.876315 300.04 
L 111.459185 300.04 
L 111.459185 284.54582 
L 109.876315 284.54582 
z
" clip-path="url(#p29d3ecf819)" style="fill: #006400"/>
   </g>
   <g id="patch_38">
    <path d="M 111.38381 300.04 
L 112.96668 300.04 
L 112.96668 269.05164 
L 111.38381 269.05164 
z
" clip-path="url(#p29d3ecf819)" style="fill: #006400"/>
   </g>
   <g id="patch_39">
    <path d="M 112.891306 300.04 
L 114.474176 300.04 
L 114.474176 284.54582 
L 112.891306 284.54582 
z
" clip-path="url(#p29d3ecf819)" style="fill: #006400"/>
   </g>
   <g id="patch_40">
    <path d="M 114.398801 300.04 
L 115.981672 300.04 
L 115.981672 284.54582 
L 114.398801 284.54582 
z
" clip-path="url(#p29d3ecf819)" style="fill: #006400"/>
   </g>
   <g id="patch_41">
    <path d="M 115.906297 300.04 
L 117.489167 300.04 
L 117.489167 284.54582 
L 115.906297 284.54582 
z
" clip-path="url(#p29d3ecf819)" style="fill: #006400"/>
   </g>
   <g id="patch_42">
    <path d="M 117.413792 300.04 
L 118.996663 300.04 
L 118.996663 284.54582 
L 117.413792 284.54582 
z
" clip-path="url(#p29d3ecf819)" style="fill: #006400"/>
   </g>
   <g id="patch_43">
    <path d="M 118.921288 300.04 
L 120.504158 300.04 
L 120.504158 284.54582 
L 118.921288 284.54582 
z
" clip-path="url(#p29d3ecf819)" style="fill: #006400"/>
   </g>
   <g id="patch_44">
    <path d="M 120.428783 300.04 
L 122.011654 300.04 
L 122.011654 284.54582 
L 120.428783 284.54582 
z
" clip-path="url(#p29d3ecf819)" style="fill: #006400"/>
   </g>
   <g id="patch_45">
    <path d="M 121.936279 300.04 
L 123.519149 300.04 
L 123.519149 284.54582 
L 121.936279 284.54582 
z
" clip-path="url(#p29d3ecf819)" style="fill: #006400"/>
   </g>
   <g id="patch_46">
    <path d="M 123.443775 300.04 
L 125.026645 300.04 
L 125.026645 176.086561 
L 123.443775 176.086561 
z
" clip-path="url(#p29d3ecf819)" style="fill: #90ee90"/>
   </g>
   <g id="patch_47">
    <path d="M 124.95127 300.04 
L 126.53414 300.04 
L 126.53414 114.109841 
L 124.95127 114.109841 
z
" clip-path="url(#p29d3ecf819)" style="fill: #006400"/>
   </g>
   <g id="patch_48">
    <path d="M 126.458766 300.04 
L 128.041636 300.04 
L 128.041636 98.615661 
L 126.458766 98.615661 
z
" clip-path="url(#p29d3ecf819)" style="fill: #90ee90"/>
   </g>
   <g id="patch_49">
    <path d="M 127.966261 300.04 
L 129.549132 300.04 
L 129.549132 269.05164 
L 127.966261 269.05164 
z
" clip-path="url(#p29d3ecf819)" style="fill: #006400"/>
   </g>
   <g id="patch_50">
    <path d="M 129.473757 300.04 
L 131.056627 300.04 
L 131.056627 253.55746 
L 129.473757 253.55746 
z
" clip-path="url(#p29d3ecf819)" style="fill: #006400"/>
   </g>
   <g id="patch_51">
    <path d="M 130.981252 300.04 
L 132.564123 300.04 
L 132.564123 269.05164 
L 130.981252 269.05164 
z
" clip-path="url(#p29d3ecf819)" style="fill: #006400"/>
   </g>
   <g id="patch_52">
    <path d="M 132.488748 300.04 
L 134.071618 300.04 
L 134.071618 284.54582 
L 132.488748 284.54582 
z
" clip-path="url(#p29d3ecf819)" style="fill: #006400"/>
   </g>
   <g id="patch_53">
    <path d="M 133.996244 300.04 
L 135.579114 300.04 
L 135.579114 253.55746 
L 133.996244 253.55746 
z
" clip-path="url(#p29d3ecf819)" style="fill: #006400"/>
   </g>
   <g id="patch_54">
    <path d="M 135.503739 300.04 
L 137.086609 300.04 
L 137.086609 284.54582 
L 135.503739 284.54582 
z
" clip-path="url(#p29d3ecf819)" style="fill: #006400"/>
   </g>
   <g id="patch_55">
    <path d="M 137.011235 300.04 
L 138.594105 300.04 
L 138.594105 284.54582 
L 137.011235 284.54582 
z
" clip-path="url(#p29d3ecf819)" style="fill: #006400"/>
   </g>
   <g id="patch_56">
    <path d="M 138.51873 300.04 
L 140.101601 300.04 
L 140.101601 269.05164 
L 138.51873 269.05164 
z
" clip-path="url(#p29d3ecf819)" style="fill: #006400"/>
   </g>
   <g id="patch_57">
    <path d="M 140.026226 300.04 
L 141.609096 300.04 
L 141.609096 269.05164 
L 140.026226 269.05164 
z
" clip-path="url(#p29d3ecf819)" style="fill: #006400"/>
   </g>
   <g id="patch_58">
    <path d="M 141.533721 300.04 
L 143.116592 300.04 
L 143.116592 129.604021 
L 141.533721 129.604021 
z
" clip-path="url(#p29d3ecf819)" style="fill: #90ee90"/>
   </g>
   <g id="patch_59">
    <path d="M 143.041217 300.04 
L 144.624087 300.04 
L 144.624087 176.086561 
L 143.041217 176.086561 
z
" clip-path="url(#p29d3ecf819)" style="fill: #90ee90"/>
   </g>
   <g id="patch_60">
    <path d="M 144.548712 300.04 
L 146.131583 300.04 
L 146.131583 191.580741 
L 144.548712 191.580741 
z
" clip-path="url(#p29d3ecf819)" style="fill: #006400"/>
   </g>
   <g id="patch_61">
    <path d="M 146.056208 300.04 
L 147.639078 300.04 
L 147.639078 145.098201 
L 146.056208 145.098201 
z
" clip-path="url(#p29d3ecf819)" style="fill: #90ee90"/>
   </g>
   <g id="patch_62">
    <path d="M 147.563704 300.04 
L 149.146574 300.04 
L 149.146574 36.638942 
L 147.563704 36.638942 
z
" clip-path="url(#p29d3ecf819)" style="fill: #006400"/>
   </g>
   <g id="patch_63">
    <path d="M 149.071199 300.04 
L 150.654069 300.04 
L 150.654069 129.604021 
L 149.071199 129.604021 
z
" clip-path="url(#p29d3ecf819)" style="fill: #90ee90"/>
   </g>
   <g id="patch_64">
    <path d="M 150.578695 300.04 
L 152.161565 300.04 
L 152.161565 145.098201 
L 150.578695 145.098201 
z
" clip-path="url(#p29d3ecf819)" style="fill: #006400"/>
   </g>
   <g id="patch_65">
    <path d="M 152.08619 300.04 
L 153.669061 300.04 
L 153.669061 114.109841 
L 152.08619 114.109841 
z
" clip-path="url(#p29d3ecf819)" style="fill: #90ee90"/>
   </g>
   <g id="patch_66">
    <path d="M 153.593686 300.04 
L 155.176556 300.04 
L 155.176556 284.54582 
L 153.593686 284.54582 
z
" clip-path="url(#p29d3ecf819)" style="fill: #006400"/>
   </g>
   <g id="patch_67">
    <path d="M 155.101181 300.04 
L 156.684052 300.04 
L 156.684052 284.54582 
L 155.101181 284.54582 
z
" clip-path="url(#p29d3ecf819)" style="fill: #006400"/>
   </g>
   <g id="patch_68">
    <path d="M 156.608677 300.04 
L 158.191547 300.04 
L 158.191547 269.05164 
L 156.608677 269.05164 
z
" clip-path="url(#p29d3ecf819)" style="fill: #006400"/>
   </g>
   <g id="patch_69">
    <path d="M 158.116172 300.04 
L 159.699043 300.04 
L 159.699043 284.54582 
L 158.116172 284.54582 
z
" clip-path="url(#p29d3ecf819)" style="fill: #006400"/>
   </g>
   <g id="patch_70">
    <path d="M 159.623668 300.04 
L 161.206538 300.04 
L 161.206538 253.55746 
L 159.623668 253.55746 
z
" clip-path="url(#p29d3ecf819)" style="fill: #006400"/>
   </g>
   <g id="patch_71">
    <path d="M 161.131164 300.04 
L 162.714034 300.04 
L 162.714034 269.05164 
L 161.131164 269.05164 
z
" clip-path="url(#p29d3ecf819)" style="fill: #006400"/>
   </g>
   <g id="patch_72">
    <path d="M 162.638659 300.04 
L 164.221529 300.04 
L 164.221529 269.05164 
L 162.638659 269.05164 
z
" clip-path="url(#p29d3ecf819)" style="fill: #006400"/>
   </g>
   <g id="patch_73">
    <path d="M 164.146155 300.04 
L 165.729025 300.04 
L 165.729025 284.54582 
L 164.146155 284.54582 
z
" clip-path="url(#p29d3ecf819)" style="fill: #006400"/>
   </g>
   <g id="patch_74">
    <path d="M 165.65365 300.04 
L 167.236521 300.04 
L 167.236521 284.54582 
L 165.65365 284.54582 
z
" clip-path="url(#p29d3ecf819)" style="fill: #006400"/>
   </g>
   <g id="patch_75">
    <path d="M 167.161146 300.04 
L 168.744016 300.04 
L 168.744016 269.05164 
L 167.161146 269.05164 
z
" clip-path="url(#p29d3ecf819)" style="fill: #006400"/>
   </g>
   <g id="patch_76">
    <path d="M 168.668641 300.04 
L 170.251512 300.04 
L 170.251512 253.55746 
L 168.668641 253.55746 
z
" clip-path="url(#p29d3ecf819)" style="fill: #006400"/>
   </g>
   <g id="patch_77">
    <path d="M 170.176137 300.04 
L 171.759007 300.04 
L 171.759007 269.05164 
L 170.176137 269.05164 
z
" clip-path="url(#p29d3ecf819)" style="fill: #006400"/>
   </g>
   <g id="patch_78">
    <path d="M 171.683632 300.04 
L 173.266503 300.04 
L 173.266503 284.54582 
L 171.683632 284.54582 
z
" clip-path="url(#p29d3ecf819)" style="fill: #006400"/>
   </g>
   <g id="patch_79">
    <path d="M 173.191128 300.04 
L 174.773998 300.04 
L 174.773998 129.604021 
L 173.191128 129.604021 
z
" clip-path="url(#p29d3ecf819)" style="fill: #90ee90"/>
   </g>
   <g id="patch_80">
    <path d="M 174.698624 300.04 
L 176.281494 300.04 
L 176.281494 145.098201 
L 174.698624 145.098201 
z
" clip-path="url(#p29d3ecf819)" style="fill: #006400"/>
   </g>
   <g id="patch_81">
    <path d="M 176.206119 300.04 
L 177.788989 300.04 
L 177.788989 176.086561 
L 176.206119 176.086561 
z
" clip-path="url(#p29d3ecf819)" style="fill: #90ee90"/>
   </g>
   <g id="patch_82">
    <path d="M 177.713615 300.04 
L 179.296485 300.04 
L 179.296485 269.05164 
L 177.713615 269.05164 
z
" clip-path="url(#p29d3ecf819)" style="fill: #006400"/>
   </g>
   <g id="patch_83">
    <path d="M 179.22111 300.04 
L 180.803981 300.04 
L 180.803981 222.569101 
L 179.22111 222.569101 
z
" clip-path="url(#p29d3ecf819)" style="fill: #006400"/>
   </g>
   <g id="patch_84">
    <path d="M 180.728606 300.04 
L 182.311476 300.04 
L 182.311476 269.05164 
L 180.728606 269.05164 
z
" clip-path="url(#p29d3ecf819)" style="fill: #006400"/>
   </g>
   <g id="patch_85">
    <path d="M 182.236101 300.04 
L 183.818972 300.04 
L 183.818972 253.55746 
L 182.236101 253.55746 
z
" clip-path="url(#p29d3ecf819)" style="fill: #006400"/>
   </g>
   <g id="patch_86">
    <path d="M 183.743597 300.04 
L 185.326467 300.04 
L 185.326467 253.55746 
L 183.743597 253.55746 
z
" clip-path="url(#p29d3ecf819)" style="fill: #006400"/>
   </g>
   <g id="patch_87">
    <path d="M 185.251092 300.04 
L 186.833963 300.04 
L 186.833963 83.121481 
L 185.251092 83.121481 
z
" clip-path="url(#p29d3ecf819)" style="fill: #90ee90"/>
   </g>
   <g id="patch_88">
    <path d="M 186.758588 300.04 
L 188.341458 300.04 
L 188.341458 238.06328 
L 186.758588 238.06328 
z
" clip-path="url(#p29d3ecf819)" style="fill: #006400"/>
   </g>
   <g id="patch_89">
    <path d="M 188.266084 300.04 
L 189.848954 300.04 
L 189.848954 222.569101 
L 188.266084 222.569101 
z
" clip-path="url(#p29d3ecf819)" style="fill: #006400"/>
   </g>
   <g id="patch_90">
    <path d="M 189.773579 300.04 
L 191.356449 300.04 
L 191.356449 114.109841 
L 189.773579 114.109841 
z
" clip-path="url(#p29d3ecf819)" style="fill: #90ee90"/>
   </g>
   <g id="patch_91">
    <path d="M 191.281075 300.04 
L 192.863945 300.04 
L 192.863945 176.086561 
L 191.281075 176.086561 
z
" clip-path="url(#p29d3ecf819)" style="fill: #90ee90"/>
   </g>
   <g id="patch_92">
    <path d="M 192.78857 300.04 
L 194.371441 300.04 
L 194.371441 207.074921 
L 192.78857 207.074921 
z
" clip-path="url(#p29d3ecf819)" style="fill: #006400"/>
   </g>
   <g id="patch_93">
    <path d="M 194.296066 300.04 
L 195.878936 300.04 
L 195.878936 160.592381 
L 194.296066 160.592381 
z
" clip-path="url(#p29d3ecf819)" style="fill: #006400"/>
   </g>
   <g id="patch_94">
    <path d="M 195.803561 300.04 
L 197.386432 300.04 
L 197.386432 269.05164 
L 195.803561 269.05164 
z
" clip-path="url(#p29d3ecf819)" style="fill: #90ee90"/>
   </g>
   <g id="patch_95">
    <path d="M 197.311057 300.04 
L 198.893927 300.04 
L 198.893927 238.06328 
L 197.311057 238.06328 
z
" clip-path="url(#p29d3ecf819)" style="fill: #90ee90"/>
   </g>
   <g id="patch_96">
    <path d="M 198.818552 300.04 
L 200.401423 300.04 
L 200.401423 284.54582 
L 198.818552 284.54582 
z
" clip-path="url(#p29d3ecf819)" style="fill: #90ee90"/>
   </g>
   <g id="patch_97">
    <path d="M 200.326048 300.04 
L 201.908918 300.04 
L 201.908918 253.55746 
L 200.326048 253.55746 
z
" clip-path="url(#p29d3ecf819)" style="fill: #90ee90"/>
   </g>
   <g id="patch_98">
    <path d="M 201.833544 300.04 
L 203.416414 300.04 
L 203.416414 269.05164 
L 201.833544 269.05164 
z
" clip-path="url(#p29d3ecf819)" style="fill: #90ee90"/>
   </g>
   <g id="patch_99">
    <path d="M 203.341039 300.04 
L 204.923909 300.04 
L 204.923909 253.55746 
L 203.341039 253.55746 
z
" clip-path="url(#p29d3ecf819)" style="fill: #90ee90"/>
   </g>
   <g id="patch_100">
    <path d="M 204.848535 300.04 
L 206.431405 300.04 
L 206.431405 129.604021 
L 204.848535 129.604021 
z
" clip-path="url(#p29d3ecf819)" style="fill: #006400"/>
   </g>
   <g id="patch_101">
    <path d="M 206.35603 300.04 
L 207.938901 300.04 
L 207.938901 222.569101 
L 206.35603 222.569101 
z
" clip-path="url(#p29d3ecf819)" style="fill: #90ee90"/>
   </g>
   <g id="patch_102">
    <path d="M 207.863526 300.04 
L 209.446396 300.04 
L 209.446396 284.54582 
L 207.863526 284.54582 
z
" clip-path="url(#p29d3ecf819)" style="fill: #90ee90"/>
   </g>
   <g id="patch_103">
    <path d="M 209.371021 300.04 
L 210.953892 300.04 
L 210.953892 269.05164 
L 209.371021 269.05164 
z
" clip-path="url(#p29d3ecf819)" style="fill: #90ee90"/>
   </g>
   <g id="patch_104">
    <path d="M 210.878517 300.04 
L 212.461387 300.04 
L 212.461387 253.55746 
L 210.878517 253.55746 
z
" clip-path="url(#p29d3ecf819)" style="fill: #90ee90"/>
   </g>
   <g id="patch_105">
    <path d="M 212.386012 300.04 
L 213.968883 300.04 
L 213.968883 269.05164 
L 212.386012 269.05164 
z
" clip-path="url(#p29d3ecf819)" style="fill: #90ee90"/>
   </g>
   <g id="patch_106">
    <path d="M 213.893508 300.04 
L 215.476378 300.04 
L 215.476378 222.569101 
L 213.893508 222.569101 
z
" clip-path="url(#p29d3ecf819)" style="fill: #90ee90"/>
   </g>
   <g id="patch_107">
    <path d="M 215.401004 300.04 
L 216.983874 300.04 
L 216.983874 129.604021 
L 215.401004 129.604021 
z
" clip-path="url(#p29d3ecf819)" style="fill: #006400"/>
   </g>
   <g id="patch_108">
    <path d="M 216.908499 300.04 
L 218.491369 300.04 
L 218.491369 114.109841 
L 216.908499 114.109841 
z
" clip-path="url(#p29d3ecf819)" style="fill: #90ee90"/>
   </g>
   <g id="patch_109">
    <path d="M 218.415995 300.04 
L 219.998865 300.04 
L 219.998865 238.06328 
L 218.415995 238.06328 
z
" clip-path="url(#p29d3ecf819)" style="fill: #006400"/>
   </g>
   <g id="patch_110">
    <path d="M 219.92349 300.04 
L 221.506361 300.04 
L 221.506361 191.580741 
L 219.92349 191.580741 
z
" clip-path="url(#p29d3ecf819)" style="fill: #006400"/>
   </g>
   <g id="patch_111">
    <path d="M 221.430986 300.04 
L 223.013856 300.04 
L 223.013856 191.580741 
L 221.430986 191.580741 
z
" clip-path="url(#p29d3ecf819)" style="fill: #90ee90"/>
   </g>
   <g id="patch_112">
    <path d="M 222.938481 300.04 
L 224.521352 300.04 
L 224.521352 114.109841 
L 222.938481 114.109841 
z
" clip-path="url(#p29d3ecf819)" style="fill: #006400"/>
   </g>
   <g id="patch_113">
    <path d="M 224.445977 300.04 
L 226.028847 300.04 
L 226.028847 52.133122 
L 224.445977 52.133122 
z
" clip-path="url(#p29d3ecf819)" style="fill: #90ee90"/>
   </g>
   <g id="patch_114">
    <path d="M 225.953472 300.04 
L 227.536343 300.04 
L 227.536343 176.086561 
L 225.953472 176.086561 
z
" clip-path="url(#p29d3ecf819)" style="fill: #006400"/>
   </g>
   <g id="patch_115">
    <path d="M 227.460968 300.04 
L 229.043838 300.04 
L 229.043838 160.592381 
L 227.460968 160.592381 
z
" clip-path="url(#p29d3ecf819)" style="fill: #90ee90"/>
   </g>
   <g id="patch_116">
    <path d="M 228.968464 300.04 
L 230.551334 300.04 
L 230.551334 36.638942 
L 228.968464 36.638942 
z
" clip-path="url(#p29d3ecf819)" style="fill: #006400"/>
   </g>
   <g id="patch_117">
    <path d="M 230.475959 300.04 
L 232.058829 300.04 
L 232.058829 67.627302 
L 230.475959 67.627302 
z
" clip-path="url(#p29d3ecf819)" style="fill: #90ee90"/>
   </g>
   <g id="patch_118">
    <path d="M 231.983455 300.04 
L 233.566325 300.04 
L 233.566325 269.05164 
L 231.983455 269.05164 
z
" clip-path="url(#p29d3ecf819)" style="fill: #006400"/>
   </g>
   <g id="patch_119">
    <path d="M 233.49095 300.04 
L 235.073821 300.04 
L 235.073821 284.54582 
L 233.49095 284.54582 
z
" clip-path="url(#p29d3ecf819)" style="fill: #006400"/>
   </g>
   <g id="patch_120">
    <path d="M 234.998446 300.04 
L 236.581316 300.04 
L 236.581316 253.55746 
L 234.998446 253.55746 
z
" clip-path="url(#p29d3ecf819)" style="fill: #006400"/>
   </g>
   <g id="patch_121">
    <path d="M 236.505941 300.04 
L 238.088812 300.04 
L 238.088812 253.55746 
L 236.505941 253.55746 
z
" clip-path="url(#p29d3ecf819)" style="fill: #006400"/>
   </g>
   <g id="patch_122">
    <path d="M 238.013437 300.04 
L 239.596307 300.04 
L 239.596307 284.54582 
L 238.013437 284.54582 
z
" clip-path="url(#p29d3ecf819)" style="fill: #006400"/>
   </g>
   <g id="patch_123">
    <path d="M 239.520933 300.04 
L 241.103803 300.04 
L 241.103803 284.54582 
L 239.520933 284.54582 
z
" clip-path="url(#p29d3ecf819)" style="fill: #006400"/>
   </g>
   <g id="patch_124">
    <path d="M 241.028428 300.04 
L 242.611298 300.04 
L 242.611298 269.05164 
L 241.028428 269.05164 
z
" clip-path="url(#p29d3ecf819)" style="fill: #006400"/>
   </g>
   <g id="patch_125">
    <path d="M 242.535924 300.04 
L 244.118794 300.04 
L 244.118794 284.54582 
L 242.535924 284.54582 
z
" clip-path="url(#p29d3ecf819)" style="fill: #006400"/>
   </g>
   <g id="patch_126">
    <path d="M 244.043419 300.04 
L 245.62629 300.04 
L 245.62629 269.05164 
L 244.043419 269.05164 
z
" clip-path="url(#p29d3ecf819)" style="fill: #006400"/>
   </g>
   <g id="patch_127">
    <path d="M 245.550915 300.04 
L 247.133785 300.04 
L 247.133785 284.54582 
L 245.550915 284.54582 
z
" clip-path="url(#p29d3ecf819)" style="fill: #006400"/>
   </g>
   <g id="patch_128">
    <path d="M 247.05841 300.04 
L 248.641281 300.04 
L 248.641281 253.55746 
L 247.05841 253.55746 
z
" clip-path="url(#p29d3ecf819)" style="fill: #006400"/>
   </g>
   <g id="patch_129">
    <path d="M 248.565906 300.04 
L 250.148776 300.04 
L 250.148776 284.54582 
L 248.565906 284.54582 
z
" clip-path="url(#p29d3ecf819)" style="fill: #006400"/>
   </g>
   <g id="patch_130">
    <path d="M 250.073401 300.04 
L 251.656272 300.04 
L 251.656272 284.54582 
L 250.073401 284.54582 
z
" clip-path="url(#p29d3ecf819)" style="fill: #006400"/>
   </g>
   <g id="patch_131">
    <path d="M 251.580897 300.04 
L 253.163767 300.04 
L 253.163767 269.05164 
L 251.580897 269.05164 
z
" clip-path="url(#p29d3ecf819)" style="fill: #006400"/>
   </g>
   <g id="patch_132">
    <path d="M 253.088393 300.04 
L 254.671263 300.04 
L 254.671263 284.54582 
L 253.088393 284.54582 
z
" clip-path="url(#p29d3ecf819)" style="fill: #006400"/>
   </g>
   <g id="patch_133">
    <path d="M 254.595888 300.04 
L 256.178758 300.04 
L 256.178758 269.05164 
L 254.595888 269.05164 
z
" clip-path="url(#p29d3ecf819)" style="fill: #006400"/>
   </g>
   <g id="patch_134">
    <path d="M 256.103384 300.04 
L 257.686254 300.04 
L 257.686254 160.592381 
L 256.103384 160.592381 
z
" clip-path="url(#p29d3ecf819)" style="fill: #90ee90"/>
   </g>
   <g id="patch_135">
    <path d="M 257.610879 300.04 
L 259.19375 300.04 
L 259.19375 191.580741 
L 257.610879 191.580741 
z
" clip-path="url(#p29d3ecf819)" style="fill: #006400"/>
   </g>
   <g id="patch_136">
    <path d="M 259.118375 300.04 
L 260.701245 300.04 
L 260.701245 67.627302 
L 259.118375 67.627302 
z
" clip-path="url(#p29d3ecf819)" style="fill: #90ee90"/>
   </g>
   <g id="patch_137">
    <path d="M 260.62587 300.04 
L 262.208741 300.04 
L 262.208741 36.638942 
L 260.62587 36.638942 
z
" clip-path="url(#p29d3ecf819)" style="fill: #006400"/>
   </g>
   <g id="patch_138">
    <path d="M 262.133366 300.04 
L 263.716236 300.04 
L 263.716236 21.144762 
L 262.133366 21.144762 
z
" clip-path="url(#p29d3ecf819)" style="fill: #90ee90"/>
   </g>
   <g id="patch_139">
    <path d="M 263.640861 300.04 
L 265.223732 300.04 
L 265.223732 145.098201 
L 263.640861 145.098201 
z
" clip-path="url(#p29d3ecf819)" style="fill: #006400"/>
   </g>
   <g id="patch_140">
    <path d="M 265.148357 300.04 
L 266.731227 300.04 
L 266.731227 269.05164 
L 265.148357 269.05164 
z
" clip-path="url(#p29d3ecf819)" style="fill: #006400"/>
   </g>
   <g id="patch_141">
    <path d="M 266.655853 300.04 
L 268.238723 300.04 
L 268.238723 222.569101 
L 266.655853 222.569101 
z
" clip-path="url(#p29d3ecf819)" style="fill: #006400"/>
   </g>
   <g id="patch_142">
    <path d="M 268.163348 300.04 
L 269.746218 300.04 
L 269.746218 253.55746 
L 268.163348 253.55746 
z
" clip-path="url(#p29d3ecf819)" style="fill: #90ee90"/>
   </g>
   <g id="patch_143">
    <path d="M 269.670844 300.04 
L 271.253714 300.04 
L 271.253714 253.55746 
L 269.670844 253.55746 
z
" clip-path="url(#p29d3ecf819)" style="fill: #90ee90"/>
   </g>
   <g id="patch_144">
    <path d="M 271.178339 300.04 
L 272.76121 300.04 
L 272.76121 238.06328 
L 271.178339 238.06328 
z
" clip-path="url(#p29d3ecf819)" style="fill: #90ee90"/>
   </g>
   <g id="patch_145">
    <path d="M 272.685835 300.04 
L 274.268705 300.04 
L 274.268705 222.569101 
L 272.685835 222.569101 
z
" clip-path="url(#p29d3ecf819)" style="fill: #006400"/>
   </g>
   <g id="patch_146">
    <path d="M 274.19333 300.04 
L 275.776201 300.04 
L 275.776201 191.580741 
L 274.19333 191.580741 
z
" clip-path="url(#p29d3ecf819)" style="fill: #006400"/>
   </g>
   <g id="patch_147">
    <path d="M 275.700826 300.04 
L 277.283696 300.04 
L 277.283696 207.074921 
L 275.700826 207.074921 
z
" clip-path="url(#p29d3ecf819)" style="fill: #90ee90"/>
   </g>
   <g id="patch_148">
    <path d="M 277.208321 300.04 
L 278.791192 300.04 
L 278.791192 222.569101 
L 277.208321 222.569101 
z
" clip-path="url(#p29d3ecf819)" style="fill: #90ee90"/>
   </g>
   <g id="patch_149">
    <path d="M 278.715817 300.04 
L 280.298687 300.04 
L 280.298687 238.06328 
L 278.715817 238.06328 
z
" clip-path="url(#p29d3ecf819)" style="fill: #90ee90"/>
   </g>
   <g id="patch_150">
    <path d="M 280.223313 300.04 
L 281.806183 300.04 
L 281.806183 114.109841 
L 280.223313 114.109841 
z
" clip-path="url(#p29d3ecf819)" style="fill: #006400"/>
   </g>
   <g id="patch_151">
    <path d="M 281.730808 300.04 
L 283.313678 300.04 
L 283.313678 284.54582 
L 281.730808 284.54582 
z
" clip-path="url(#p29d3ecf819)" style="fill: #90ee90"/>
   </g>
   <g id="patch_152">
    <path d="M 283.238304 300.04 
L 284.821174 300.04 
L 284.821174 284.54582 
L 283.238304 284.54582 
z
" clip-path="url(#p29d3ecf819)" style="fill: #90ee90"/>
   </g>
   <g id="patch_153">
    <path d="M 284.745799 300.04 
L 286.32867 300.04 
L 286.32867 253.55746 
L 284.745799 253.55746 
z
" clip-path="url(#p29d3ecf819)" style="fill: #90ee90"/>
   </g>
   <g id="patch_154">
    <path d="M 286.253295 300.04 
L 287.836165 300.04 
L 287.836165 284.54582 
L 286.253295 284.54582 
z
" clip-path="url(#p29d3ecf819)" style="fill: #90ee90"/>
   </g>
   <g id="patch_155">
    <path d="M 287.76079 300.04 
L 289.343661 300.04 
L 289.343661 284.54582 
L 287.76079 284.54582 
z
" clip-path="url(#p29d3ecf819)" style="fill: #90ee90"/>
   </g>
   <g id="patch_156">
    <path d="M 289.268286 300.04 
L 290.851156 300.04 
L 290.851156 269.05164 
L 289.268286 269.05164 
z
" clip-path="url(#p29d3ecf819)" style="fill: #90ee90"/>
   </g>
   <g id="patch_157">
    <path d="M 290.775781 300.04 
L 292.358652 300.04 
L 292.358652 284.54582 
L 290.775781 284.54582 
z
" clip-path="url(#p29d3ecf819)" style="fill: #90ee90"/>
   </g>
   <g id="patch_158">
    <path d="M 292.283277 300.04 
L 293.866147 300.04 
L 293.866147 253.55746 
L 292.283277 253.55746 
z
" clip-path="url(#p29d3ecf819)" style="fill: #90ee90"/>
   </g>
   <g id="patch_159">
    <path d="M 293.790773 300.04 
L 295.373643 300.04 
L 295.373643 269.05164 
L 293.790773 269.05164 
z
" clip-path="url(#p29d3ecf819)" style="fill: #90ee90"/>
   </g>
   <g id="patch_160">
    <path d="M 295.298268 300.04 
L 296.881138 300.04 
L 296.881138 284.54582 
L 295.298268 284.54582 
z
" clip-path="url(#p29d3ecf819)" style="fill: #90ee90"/>
   </g>
   <g id="patch_161">
    <path d="M 296.805764 300.04 
L 298.388634 300.04 
L 298.388634 238.06328 
L 296.805764 238.06328 
z
" clip-path="url(#p29d3ecf819)" style="fill: #90ee90"/>
   </g>
   <g id="patch_162">
    <path d="M 298.313259 300.04 
L 299.89613 300.04 
L 299.89613 238.06328 
L 298.313259 238.06328 
z
" clip-path="url(#p29d3ecf819)" style="fill: #006400"/>
   </g>
   <g id="patch_163">
    <path d="M 299.820755 300.04 
L 301.403625 300.04 
L 301.403625 222.569101 
L 299.820755 222.569101 
z
" clip-path="url(#p29d3ecf819)" style="fill: #006400"/>
   </g>
   <g id="patch_164">
    <path d="M 301.32825 300.04 
L 302.911121 300.04 
L 302.911121 129.604021 
L 301.32825 129.604021 
z
" clip-path="url(#p29d3ecf819)" style="fill: #90ee90"/>
   </g>
   <g id="patch_165">
    <path d="M 302.835746 300.04 
L 304.418616 300.04 
L 304.418616 114.109841 
L 302.835746 114.109841 
z
" clip-path="url(#p29d3ecf819)" style="fill: #006400"/>
   </g>
   <g id="patch_166">
    <path d="M 304.343241 300.04 
L 305.926112 300.04 
L 305.926112 67.627302 
L 304.343241 67.627302 
z
" clip-path="url(#p29d3ecf819)" style="fill: #90ee90"/>
   </g>
   <g id="patch_167">
    <path d="M 305.850737 300.04 
L 307.433607 300.04 
L 307.433607 253.55746 
L 305.850737 253.55746 
z
" clip-path="url(#p29d3ecf819)" style="fill: #006400"/>
   </g>
   <g id="patch_168">
    <path d="M 307.358233 300.04 
L 308.941103 300.04 
L 308.941103 253.55746 
L 307.358233 253.55746 
z
" clip-path="url(#p29d3ecf819)" style="fill: #006400"/>
   </g>
   <g id="patch_169">
    <path d="M 308.865728 300.04 
L 310.448598 300.04 
L 310.448598 238.06328 
L 308.865728 238.06328 
z
" clip-path="url(#p29d3ecf819)" style="fill: #006400"/>
   </g>
   <g id="patch_170">
    <path d="M 310.373224 300.04 
L 311.956094 300.04 
L 311.956094 284.54582 
L 310.373224 284.54582 
z
" clip-path="url(#p29d3ecf819)" style="fill: #006400"/>
   </g>
   <g id="patch_171">
    <path d="M 311.880719 300.04 
L 313.46359 300.04 
L 313.46359 253.55746 
L 311.880719 253.55746 
z
" clip-path="url(#p29d3ecf819)" style="fill: #006400"/>
   </g>
   <g id="patch_172">
    <path d="M 313.388215 300.04 
L 314.971085 300.04 
L 314.971085 222.569101 
L 313.388215 222.569101 
z
" clip-path="url(#p29d3ecf819)" style="fill: #006400"/>
   </g>
   <g id="patch_173">
    <path d="M 314.89571 300.04 
L 316.478581 300.04 
L 316.478581 145.098201 
L 314.89571 145.098201 
z
" clip-path="url(#p29d3ecf819)" style="fill: #90ee90"/>
   </g>
   <g id="patch_174">
    <path d="M 316.403206 300.04 
L 317.986076 300.04 
L 317.986076 238.06328 
L 316.403206 238.06328 
z
" clip-path="url(#p29d3ecf819)" style="fill: #006400"/>
   </g>
   <g id="patch_175">
    <path d="M 317.910701 300.04 
L 319.493572 300.04 
L 319.493572 269.05164 
L 317.910701 269.05164 
z
" clip-path="url(#p29d3ecf819)" style="fill: #006400"/>
   </g>
   <g id="patch_176">
    <path d="M 319.418197 300.04 
L 321.001067 300.04 
L 321.001067 238.06328 
L 319.418197 238.06328 
z
" clip-path="url(#p29d3ecf819)" style="fill: #006400"/>
   </g>
   <g id="patch_177">
    <path d="M 320.925693 300.04 
L 322.508563 300.04 
L 322.508563 269.05164 
L 320.925693 269.05164 
z
" clip-path="url(#p29d3ecf819)" style="fill: #90ee90"/>
   </g>
   <g id="patch_178">
    <path d="M 322.433188 300.04 
L 324.016058 300.04 
L 324.016058 269.05164 
L 322.433188 269.05164 
z
" clip-path="url(#p29d3ecf819)" style="fill: #90ee90"/>
   </g>
   <g id="patch_179">
    <path d="M 323.940684 300.04 
L 325.523554 300.04 
L 325.523554 253.55746 
L 323.940684 253.55746 
z
" clip-path="url(#p29d3ecf819)" style="fill: #90ee90"/>
   </g>
   <g id="patch_180">
    <path d="M 325.448179 300.04 
L 327.03105 300.04 
L 327.03105 238.06328 
L 325.448179 238.06328 
z
" clip-path="url(#p29d3ecf819)" style="fill: #90ee90"/>
   </g>
   <g id="patch_181">
    <path d="M 326.955675 300.04 
L 328.538545 300.04 
L 328.538545 284.54582 
L 326.955675 284.54582 
z
" clip-path="url(#p29d3ecf819)" style="fill: #90ee90"/>
   </g>
   <g id="patch_182">
    <path d="M 328.46317 300.04 
L 330.046041 300.04 
L 330.046041 176.086561 
L 328.46317 176.086561 
z
" clip-path="url(#p29d3ecf819)" style="fill: #006400"/>
   </g>
   <g id="patch_183">
    <path d="M 329.970666 300.04 
L 331.553536 300.04 
L 331.553536 207.074921 
L 329.970666 207.074921 
z
" clip-path="url(#p29d3ecf819)" style="fill: #006400"/>
   </g>
   <g id="patch_184">
    <path d="M 331.478161 300.04 
L 333.061032 300.04 
L 333.061032 238.06328 
L 331.478161 238.06328 
z
" clip-path="url(#p29d3ecf819)" style="fill: #006400"/>
   </g>
   <g id="patch_185">
    <path d="M 332.985657 300.04 
L 334.568527 300.04 
L 334.568527 176.086561 
L 332.985657 176.086561 
z
" clip-path="url(#p29d3ecf819)" style="fill: #90ee90"/>
   </g>
   <g id="patch_186">
    <path d="M 334.493153 300.04 
L 336.076023 300.04 
L 336.076023 269.05164 
L 334.493153 269.05164 
z
" clip-path="url(#p29d3ecf819)" style="fill: #90ee90"/>
   </g>
   <g id="patch_187">
    <path d="M 336.000648 300.04 
L 337.583518 300.04 
L 337.583518 98.615661 
L 336.000648 98.615661 
z
" clip-path="url(#p29d3ecf819)" style="fill: #006400"/>
   </g>
   <g id="patch_188">
    <path d="M 337.508144 300.04 
L 339.091014 300.04 
L 339.091014 191.580741 
L 337.508144 191.580741 
z
" clip-path="url(#p29d3ecf819)" style="fill: #90ee90"/>
   </g>
   <g id="patch_189">
    <path d="M 339.015639 300.04 
L 340.59851 300.04 
L 340.59851 222.569101 
L 339.015639 222.569101 
z
" clip-path="url(#p29d3ecf819)" style="fill: #006400"/>
   </g>
   <g id="patch_190">
    <path d="M 340.523135 300.04 
L 342.106005 300.04 
L 342.106005 253.55746 
L 340.523135 253.55746 
z
" clip-path="url(#p29d3ecf819)" style="fill: #006400"/>
   </g>
   <g id="patch_191">
    <path d="M 342.03063 300.04 
L 343.613501 300.04 
L 343.613501 253.55746 
L 342.03063 253.55746 
z
" clip-path="url(#p29d3ecf819)" style="fill: #006400"/>
   </g>
   <g id="patch_192">
    <path d="M 343.538126 300.04 
L 345.120996 300.04 
L 345.120996 191.580741 
L 343.538126 191.580741 
z
" clip-path="url(#p29d3ecf819)" style="fill: #006400"/>
   </g>
   <g id="patch_193">
    <path d="M 345.045622 300.04 
L 346.628492 300.04 
L 346.628492 145.098201 
L 345.045622 145.098201 
z
" clip-path="url(#p29d3ecf819)" style="fill: #90ee90"/>
   </g>
   <g id="patch_194">
    <path d="M 346.553117 300.04 
L 348.135987 300.04 
L 348.135987 160.592381 
L 346.553117 160.592381 
z
" clip-path="url(#p29d3ecf819)" style="fill: #006400"/>
   </g>
   <g id="patch_195">
    <path d="M 348.060613 300.04 
L 349.643483 300.04 
L 349.643483 83.121481 
L 348.060613 83.121481 
z
" clip-path="url(#p29d3ecf819)" style="fill: #90ee90"/>
   </g>
   <g id="patch_196">
    <path d="M 349.568108 300.04 
L 351.150979 300.04 
L 351.150979 129.604021 
L 349.568108 129.604021 
z
" clip-path="url(#p29d3ecf819)" style="fill: #006400"/>
   </g>
   <g id="patch_197">
    <path d="M 351.075604 300.04 
L 352.658474 300.04 
L 352.658474 114.109841 
L 351.075604 114.109841 
z
" clip-path="url(#p29d3ecf819)" style="fill: #90ee90"/>
   </g>
   <g id="patch_198">
    <path d="M 352.583099 300.04 
L 354.16597 300.04 
L 354.16597 83.121481 
L 352.583099 83.121481 
z
" clip-path="url(#p29d3ecf819)" style="fill: #006400"/>
   </g>
   <g id="patch_199">
    <path d="M 354.090595 300.04 
L 355.673465 300.04 
L 355.673465 269.05164 
L 354.090595 269.05164 
z
" clip-path="url(#p29d3ecf819)" style="fill: #90ee90"/>
   </g>
   <g id="patch_200">
    <path d="M 355.59809 300.04 
L 357.180961 300.04 
L 357.180961 269.05164 
L 355.59809 269.05164 
z
" clip-path="url(#p29d3ecf819)" style="fill: #90ee90"/>
   </g>
   <g id="patch_201">
    <path d="M 357.105586 300.04 
L 358.688456 300.04 
L 358.688456 269.05164 
L 357.105586 269.05164 
z
" clip-path="url(#p29d3ecf819)" style="fill: #90ee90"/>
   </g>
   <g id="patch_202">
    <path d="M 358.613082 300.04 
L 360.195952 300.04 
L 360.195952 269.05164 
L 358.613082 269.05164 
z
" clip-path="url(#p29d3ecf819)" style="fill: #90ee90"/>
   </g>
   <g id="patch_203">
    <path d="M 360.120577 300.04 
L 361.703447 300.04 
L 361.703447 269.05164 
L 360.120577 269.05164 
z
" clip-path="url(#p29d3ecf819)" style="fill: #90ee90"/>
   </g>
   <g id="patch_204">
    <path d="M 361.628073 300.04 
L 363.210943 300.04 
L 363.210943 284.54582 
L 361.628073 284.54582 
z
" clip-path="url(#p29d3ecf819)" style="fill: #90ee90"/>
   </g>
   <g id="patch_205">
    <path d="M 363.135568 300.04 
L 364.718439 300.04 
L 364.718439 284.54582 
L 363.135568 284.54582 
z
" clip-path="url(#p29d3ecf819)" style="fill: #90ee90"/>
   </g>
   <g id="patch_206">
    <path d="M 364.643064 300.04 
L 366.225934 300.04 
L 366.225934 222.569101 
L 364.643064 222.569101 
z
" clip-path="url(#p29d3ecf819)" style="fill: #90ee90"/>
   </g>
   <g id="patch_207">
    <path d="M 366.150559 300.04 
L 367.73343 300.04 
L 367.73343 284.54582 
L 366.150559 284.54582 
z
" clip-path="url(#p29d3ecf819)" style="fill: #90ee90"/>
   </g>
   <g id="patch_208">
    <path d="M 367.658055 300.04 
L 369.240925 300.04 
L 369.240925 176.086561 
L 367.658055 176.086561 
z
" clip-path="url(#p29d3ecf819)" style="fill: #006400"/>
   </g>
   <g id="patch_209">
    <path d="M 369.16555 300.04 
L 370.748421 300.04 
L 370.748421 269.05164 
L 369.16555 269.05164 
z
" clip-path="url(#p29d3ecf819)" style="fill: #006400"/>
   </g>
   <g id="patch_210">
    <path d="M 370.673046 300.04 
L 372.255916 300.04 
L 372.255916 253.55746 
L 370.673046 253.55746 
z
" clip-path="url(#p29d3ecf819)" style="fill: #006400"/>
   </g>
   <g id="patch_211">
    <path d="M 372.180542 300.04 
L 373.763412 300.04 
L 373.763412 129.604021 
L 372.180542 129.604021 
z
" clip-path="url(#p29d3ecf819)" style="fill: #90ee90"/>
   </g>
   <g id="patch_212">
    <path d="M 373.688037 300.04 
L 375.270907 300.04 
L 375.270907 129.604021 
L 373.688037 129.604021 
z
" clip-path="url(#p29d3ecf819)" style="fill: #006400"/>
   </g>
   <g id="patch_213">
    <path d="M 375.195533 300.04 
L 376.778403 300.04 
L 376.778403 21.144762 
L 375.195533 21.144762 
z
" clip-path="url(#p29d3ecf819)" style="fill: #90ee90"/>
   </g>
   <g id="patch_214">
    <path d="M 376.703028 300.04 
L 378.285899 300.04 
L 378.285899 222.569101 
L 376.703028 222.569101 
z
" clip-path="url(#p29d3ecf819)" style="fill: #006400"/>
   </g>
   <g id="patch_215">
    <path d="M 378.210524 300.04 
L 379.793394 300.04 
L 379.793394 145.098201 
L 378.210524 145.098201 
z
" clip-path="url(#p29d3ecf819)" style="fill: #006400"/>
   </g>
   <g id="patch_216">
    <path d="M 379.718019 300.04 
L 381.30089 300.04 
L 381.30089 238.06328 
L 379.718019 238.06328 
z
" clip-path="url(#p29d3ecf819)" style="fill: #90ee90"/>
   </g>
   <g id="patch_217">
    <path d="M 381.225515 300.04 
L 382.808385 300.04 
L 382.808385 238.06328 
L 381.225515 238.06328 
z
" clip-path="url(#p29d3ecf819)" style="fill: #90ee90"/>
   </g>
   <g id="patch_218">
    <path d="M 382.73301 300.04 
L 384.315881 300.04 
L 384.315881 253.55746 
L 382.73301 253.55746 
z
" clip-path="url(#p29d3ecf819)" style="fill: #90ee90"/>
   </g>
   <g id="patch_219">
    <path d="M 384.240506 300.04 
L 385.823376 300.04 
L 385.823376 284.54582 
L 384.240506 284.54582 
z
" clip-path="url(#p29d3ecf819)" style="fill: #90ee90"/>
   </g>
   <g id="patch_220">
    <path d="M 385.748002 300.04 
L 387.330872 300.04 
L 387.330872 253.55746 
L 385.748002 253.55746 
z
" clip-path="url(#p29d3ecf819)" style="fill: #90ee90"/>
   </g>
   <g id="patch_221">
    <path d="M 387.255497 300.04 
L 388.838367 300.04 
L 388.838367 238.06328 
L 387.255497 238.06328 
z
" clip-path="url(#p29d3ecf819)" style="fill: #90ee90"/>
   </g>
   <g id="patch_222">
    <path d="M 388.762993 300.04 
L 390.345863 300.04 
L 390.345863 207.074921 
L 388.762993 207.074921 
z
" clip-path="url(#p29d3ecf819)" style="fill: #006400"/>
   </g>
   <g id="patch_223">
    <path d="M 390.270488 300.04 
L 391.853359 300.04 
L 391.853359 238.06328 
L 390.270488 238.06328 
z
" clip-path="url(#p29d3ecf819)" style="fill: #006400"/>
   </g>
   <g id="patch_224">
    <path d="M 391.777984 300.04 
L 393.360854 300.04 
L 393.360854 191.580741 
L 391.777984 191.580741 
z
" clip-path="url(#p29d3ecf819)" style="fill: #006400"/>
   </g>
   <g id="patch_225">
    <path d="M 393.285479 300.04 
L 394.86835 300.04 
L 394.86835 238.06328 
L 393.285479 238.06328 
z
" clip-path="url(#p29d3ecf819)" style="fill: #90ee90"/>
   </g>
   <g id="patch_226">
    <path d="M 394.792975 300.04 
L 396.375845 300.04 
L 396.375845 207.074921 
L 394.792975 207.074921 
z
" clip-path="url(#p29d3ecf819)" style="fill: #90ee90"/>
   </g>
   <g id="patch_227">
    <path d="M 396.30047 300.04 
L 397.883341 300.04 
L 397.883341 98.615661 
L 396.30047 98.615661 
z
" clip-path="url(#p29d3ecf819)" style="fill: #006400"/>
   </g>
   <g id="patch_228">
    <path d="M 397.807966 300.04 
L 399.390836 300.04 
L 399.390836 114.109841 
L 397.807966 114.109841 
z
" clip-path="url(#p29d3ecf819)" style="fill: #90ee90"/>
   </g>
   <g id="patch_229">
    <path d="M 399.315462 300.04 
L 400.898332 300.04 
L 400.898332 67.627302 
L 399.315462 67.627302 
z
" clip-path="url(#p29d3ecf819)" style="fill: #006400"/>
   </g>
   <g id="patch_230">
    <path d="M 400.822957 300.04 
L 402.405827 300.04 
L 402.405827 176.086561 
L 400.822957 176.086561 
z
" clip-path="url(#p29d3ecf819)" style="fill: #90ee90"/>
   </g>
   <g id="patch_231">
    <path d="M 402.330453 300.04 
L 403.913323 300.04 
L 403.913323 114.109841 
L 402.330453 114.109841 
z
" clip-path="url(#p29d3ecf819)" style="fill: #006400"/>
   </g>
   <g id="patch_232">
    <path d="M 403.837948 300.04 
L 405.420819 300.04 
L 405.420819 160.592381 
L 403.837948 160.592381 
z
" clip-path="url(#p29d3ecf819)" style="fill: #90ee90"/>
   </g>
   <g id="patch_233">
    <path d="M 405.345444 300.04 
L 406.928314 300.04 
L 406.928314 222.569101 
L 405.345444 222.569101 
z
" clip-path="url(#p29d3ecf819)" style="fill: #006400"/>
   </g>
   <g id="patch_234">
    <path d="M 406.852939 300.04 
L 408.43581 300.04 
L 408.43581 238.06328 
L 406.852939 238.06328 
z
" clip-path="url(#p29d3ecf819)" style="fill: #90ee90"/>
   </g>
   <g id="patch_235">
    <path d="M 408.360435 300.04 
L 409.943305 300.04 
L 409.943305 191.580741 
L 408.360435 191.580741 
z
" clip-path="url(#p29d3ecf819)" style="fill: #90ee90"/>
   </g>
   <g id="patch_236">
    <path d="M 409.86793 300.04 
L 411.450801 300.04 
L 411.450801 191.580741 
L 409.86793 191.580741 
z
" clip-path="url(#p29d3ecf819)" style="fill: #006400"/>
   </g>
   <g id="patch_237">
    <path d="M 411.375426 300.04 
L 412.958296 300.04 
L 412.958296 114.109841 
L 411.375426 114.109841 
z
" clip-path="url(#p29d3ecf819)" style="fill: #90ee90"/>
   </g>
   <g id="patch_238">
    <path d="M 412.882922 300.04 
L 414.465792 300.04 
L 414.465792 52.133122 
L 412.882922 52.133122 
z
" clip-path="url(#p29d3ecf819)" style="fill: #006400"/>
   </g>
   <g id="patch_239">
    <path d="M 414.390417 300.04 
L 415.973287 300.04 
L 415.973287 253.55746 
L 414.390417 253.55746 
z
" clip-path="url(#p29d3ecf819)" style="fill: #90ee90"/>
   </g>
   <g id="patch_240">
    <path d="M 415.897913 300.04 
L 417.480783 300.04 
L 417.480783 207.074921 
L 415.897913 207.074921 
z
" clip-path="url(#p29d3ecf819)" style="fill: #90ee90"/>
   </g>
   <g id="patch_241">
    <path d="M 417.405408 300.04 
L 418.988279 300.04 
L 418.988279 222.569101 
L 417.405408 222.569101 
z
" clip-path="url(#p29d3ecf819)" style="fill: #90ee90"/>
   </g>
   <g id="matplotlib.axis_1">
    <g id="xtick_1">
     <g id="line2d_1">
      <defs>
       <path id="m4ef19730bb" d="M 0 0 
L 0 3.5 
" style="stroke: #000000; stroke-width: 0.8"/>
      </defs>
      <g>
       <use xlink:href="#m4ef19730bb" x="59.412901" y="300.04" style="stroke: #000000; stroke-width: 0.8"/>
      </g>
     </g>
     <g id="text_1">
      <!-- 0 -->
      <g transform="translate(56.231651 314.638437) scale(0.1 -0.1)">
       <defs>
        <path id="DejaVuSans-30" d="M 2034 4250 
Q 1547 4250 1301 3770 
Q 1056 3291 1056 2328 
Q 1056 1369 1301 889 
Q 1547 409 2034 409 
Q 2525 409 2770 889 
Q 3016 1369 3016 2328 
Q 3016 3291 2770 3770 
Q 2525 4250 2034 4250 
z
M 2034 4750 
Q 2819 4750 3233 4129 
Q 3647 3509 3647 2328 
Q 3647 1150 3233 529 
Q 2819 -91 2034 -91 
Q 1250 -91 836 529 
Q 422 1150 422 2328 
Q 422 3509 836 4129 
Q 1250 4750 2034 4750 
z
" transform="scale(0.015625)"/>
       </defs>
       <use xlink:href="#DejaVuSans-30"/>
      </g>
     </g>
    </g>
    <g id="xtick_2">
     <g id="line2d_2">
      <g>
       <use xlink:href="#m4ef19730bb" x="134.787679" y="300.04" style="stroke: #000000; stroke-width: 0.8"/>
      </g>
     </g>
     <g id="text_2">
      <!-- 50 -->
      <g transform="translate(128.425179 314.638437) scale(0.1 -0.1)">
       <defs>
        <path id="DejaVuSans-35" d="M 691 4666 
L 3169 4666 
L 3169 4134 
L 1269 4134 
L 1269 2991 
Q 1406 3038 1543 3061 
Q 1681 3084 1819 3084 
Q 2600 3084 3056 2656 
Q 3513 2228 3513 1497 
Q 3513 744 3044 326 
Q 2575 -91 1722 -91 
Q 1428 -91 1123 -41 
Q 819 9 494 109 
L 494 744 
Q 775 591 1075 516 
Q 1375 441 1709 441 
Q 2250 441 2565 725 
Q 2881 1009 2881 1497 
Q 2881 1984 2565 2268 
Q 2250 2553 1709 2553 
Q 1456 2553 1204 2497 
Q 953 2441 691 2322 
L 691 4666 
z
" transform="scale(0.015625)"/>
       </defs>
       <use xlink:href="#DejaVuSans-35"/>
       <use xlink:href="#DejaVuSans-30" x="63.623047"/>
      </g>
     </g>
    </g>
    <g id="xtick_3">
     <g id="line2d_3">
      <g>
       <use xlink:href="#m4ef19730bb" x="210.162457" y="300.04" style="stroke: #000000; stroke-width: 0.8"/>
      </g>
     </g>
     <g id="text_3">
      <!-- 100 -->
      <g transform="translate(200.618707 314.638437) scale(0.1 -0.1)">
       <defs>
        <path id="DejaVuSans-31" d="M 794 531 
L 1825 531 
L 1825 4091 
L 703 3866 
L 703 4441 
L 1819 4666 
L 2450 4666 
L 2450 531 
L 3481 531 
L 3481 0 
L 794 0 
L 794 531 
z
" transform="scale(0.015625)"/>
       </defs>
       <use xlink:href="#DejaVuSans-31"/>
       <use xlink:href="#DejaVuSans-30" x="63.623047"/>
       <use xlink:href="#DejaVuSans-30" x="127.246094"/>
      </g>
     </g>
    </g>
    <g id="xtick_4">
     <g id="line2d_4">
      <g>
       <use xlink:href="#m4ef19730bb" x="285.537234" y="300.04" style="stroke: #000000; stroke-width: 0.8"/>
      </g>
     </g>
     <g id="text_4">
      <!-- 150 -->
      <g transform="translate(275.993484 314.638437) scale(0.1 -0.1)">
       <use xlink:href="#DejaVuSans-31"/>
       <use xlink:href="#DejaVuSans-35" x="63.623047"/>
       <use xlink:href="#DejaVuSans-30" x="127.246094"/>
      </g>
     </g>
    </g>
    <g id="xtick_5">
     <g id="line2d_5">
      <g>
       <use xlink:href="#m4ef19730bb" x="360.912012" y="300.04" style="stroke: #000000; stroke-width: 0.8"/>
      </g>
     </g>
     <g id="text_5">
      <!-- 200 -->
      <g transform="translate(351.368262 314.638437) scale(0.1 -0.1)">
       <defs>
        <path id="DejaVuSans-32" d="M 1228 531 
L 3431 531 
L 3431 0 
L 469 0 
L 469 531 
Q 828 903 1448 1529 
Q 2069 2156 2228 2338 
Q 2531 2678 2651 2914 
Q 2772 3150 2772 3378 
Q 2772 3750 2511 3984 
Q 2250 4219 1831 4219 
Q 1534 4219 1204 4116 
Q 875 4013 500 3803 
L 500 4441 
Q 881 4594 1212 4672 
Q 1544 4750 1819 4750 
Q 2544 4750 2975 4387 
Q 3406 4025 3406 3419 
Q 3406 3131 3298 2873 
Q 3191 2616 2906 2266 
Q 2828 2175 2409 1742 
Q 1991 1309 1228 531 
z
" transform="scale(0.015625)"/>
       </defs>
       <use xlink:href="#DejaVuSans-32"/>
       <use xlink:href="#DejaVuSans-30" x="63.623047"/>
       <use xlink:href="#DejaVuSans-30" x="127.246094"/>
      </g>
     </g>
    </g>
    <g id="xtick_6">
     <g id="line2d_6">
      <g>
       <use xlink:href="#m4ef19730bb" x="436.28679" y="300.04" style="stroke: #000000; stroke-width: 0.8"/>
      </g>
     </g>
     <g id="text_6">
      <!-- 250 -->
      <g transform="translate(426.74304 314.638437) scale(0.1 -0.1)">
       <use xlink:href="#DejaVuSans-32"/>
       <use xlink:href="#DejaVuSans-35" x="63.623047"/>
       <use xlink:href="#DejaVuSans-30" x="127.246094"/>
      </g>
     </g>
    </g>
    <g id="text_7">
     <!-- Substructure ID -->
     <g transform="translate(199.686903 328.316562) scale(0.1 -0.1)">
      <defs>
       <path id="DejaVuSans-53" d="M 3425 4513 
L 3425 3897 
Q 3066 4069 2747 4153 
Q 2428 4238 2131 4238 
Q 1616 4238 1336 4038 
Q 1056 3838 1056 3469 
Q 1056 3159 1242 3001 
Q 1428 2844 1947 2747 
L 2328 2669 
Q 3034 2534 3370 2195 
Q 3706 1856 3706 1288 
Q 3706 609 3251 259 
Q 2797 -91 1919 -91 
Q 1588 -91 1214 -16 
Q 841 59 441 206 
L 441 856 
Q 825 641 1194 531 
Q 1563 422 1919 422 
Q 2459 422 2753 634 
Q 3047 847 3047 1241 
Q 3047 1584 2836 1778 
Q 2625 1972 2144 2069 
L 1759 2144 
Q 1053 2284 737 2584 
Q 422 2884 422 3419 
Q 422 4038 858 4394 
Q 1294 4750 2059 4750 
Q 2388 4750 2728 4690 
Q 3069 4631 3425 4513 
z
" transform="scale(0.015625)"/>
       <path id="DejaVuSans-75" d="M 544 1381 
L 544 3500 
L 1119 3500 
L 1119 1403 
Q 1119 906 1312 657 
Q 1506 409 1894 409 
Q 2359 409 2629 706 
Q 2900 1003 2900 1516 
L 2900 3500 
L 3475 3500 
L 3475 0 
L 2900 0 
L 2900 538 
Q 2691 219 2414 64 
Q 2138 -91 1772 -91 
Q 1169 -91 856 284 
Q 544 659 544 1381 
z
M 1991 3584 
L 1991 3584 
z
" transform="scale(0.015625)"/>
       <path id="DejaVuSans-62" d="M 3116 1747 
Q 3116 2381 2855 2742 
Q 2594 3103 2138 3103 
Q 1681 3103 1420 2742 
Q 1159 2381 1159 1747 
Q 1159 1113 1420 752 
Q 1681 391 2138 391 
Q 2594 391 2855 752 
Q 3116 1113 3116 1747 
z
M 1159 2969 
Q 1341 3281 1617 3432 
Q 1894 3584 2278 3584 
Q 2916 3584 3314 3078 
Q 3713 2572 3713 1747 
Q 3713 922 3314 415 
Q 2916 -91 2278 -91 
Q 1894 -91 1617 61 
Q 1341 213 1159 525 
L 1159 0 
L 581 0 
L 581 4863 
L 1159 4863 
L 1159 2969 
z
" transform="scale(0.015625)"/>
       <path id="DejaVuSans-73" d="M 2834 3397 
L 2834 2853 
Q 2591 2978 2328 3040 
Q 2066 3103 1784 3103 
Q 1356 3103 1142 2972 
Q 928 2841 928 2578 
Q 928 2378 1081 2264 
Q 1234 2150 1697 2047 
L 1894 2003 
Q 2506 1872 2764 1633 
Q 3022 1394 3022 966 
Q 3022 478 2636 193 
Q 2250 -91 1575 -91 
Q 1294 -91 989 -36 
Q 684 19 347 128 
L 347 722 
Q 666 556 975 473 
Q 1284 391 1588 391 
Q 1994 391 2212 530 
Q 2431 669 2431 922 
Q 2431 1156 2273 1281 
Q 2116 1406 1581 1522 
L 1381 1569 
Q 847 1681 609 1914 
Q 372 2147 372 2553 
Q 372 3047 722 3315 
Q 1072 3584 1716 3584 
Q 2034 3584 2315 3537 
Q 2597 3491 2834 3397 
z
" transform="scale(0.015625)"/>
       <path id="DejaVuSans-74" d="M 1172 4494 
L 1172 3500 
L 2356 3500 
L 2356 3053 
L 1172 3053 
L 1172 1153 
Q 1172 725 1289 603 
Q 1406 481 1766 481 
L 2356 481 
L 2356 0 
L 1766 0 
Q 1100 0 847 248 
Q 594 497 594 1153 
L 594 3053 
L 172 3053 
L 172 3500 
L 594 3500 
L 594 4494 
L 1172 4494 
z
" transform="scale(0.015625)"/>
       <path id="DejaVuSans-72" d="M 2631 2963 
Q 2534 3019 2420 3045 
Q 2306 3072 2169 3072 
Q 1681 3072 1420 2755 
Q 1159 2438 1159 1844 
L 1159 0 
L 581 0 
L 581 3500 
L 1159 3500 
L 1159 2956 
Q 1341 3275 1631 3429 
Q 1922 3584 2338 3584 
Q 2397 3584 2469 3576 
Q 2541 3569 2628 3553 
L 2631 2963 
z
" transform="scale(0.015625)"/>
       <path id="DejaVuSans-63" d="M 3122 3366 
L 3122 2828 
Q 2878 2963 2633 3030 
Q 2388 3097 2138 3097 
Q 1578 3097 1268 2742 
Q 959 2388 959 1747 
Q 959 1106 1268 751 
Q 1578 397 2138 397 
Q 2388 397 2633 464 
Q 2878 531 3122 666 
L 3122 134 
Q 2881 22 2623 -34 
Q 2366 -91 2075 -91 
Q 1284 -91 818 406 
Q 353 903 353 1747 
Q 353 2603 823 3093 
Q 1294 3584 2113 3584 
Q 2378 3584 2631 3529 
Q 2884 3475 3122 3366 
z
" transform="scale(0.015625)"/>
       <path id="DejaVuSans-65" d="M 3597 1894 
L 3597 1613 
L 953 1613 
Q 991 1019 1311 708 
Q 1631 397 2203 397 
Q 2534 397 2845 478 
Q 3156 559 3463 722 
L 3463 178 
Q 3153 47 2828 -22 
Q 2503 -91 2169 -91 
Q 1331 -91 842 396 
Q 353 884 353 1716 
Q 353 2575 817 3079 
Q 1281 3584 2069 3584 
Q 2775 3584 3186 3129 
Q 3597 2675 3597 1894 
z
M 3022 2063 
Q 3016 2534 2758 2815 
Q 2500 3097 2075 3097 
Q 1594 3097 1305 2825 
Q 1016 2553 972 2059 
L 3022 2063 
z
" transform="scale(0.015625)"/>
       <path id="DejaVuSans-20" transform="scale(0.015625)"/>
       <path id="DejaVuSans-49" d="M 628 4666 
L 1259 4666 
L 1259 0 
L 628 0 
L 628 4666 
z
" transform="scale(0.015625)"/>
       <path id="DejaVuSans-44" d="M 1259 4147 
L 1259 519 
L 2022 519 
Q 2988 519 3436 956 
Q 3884 1394 3884 2338 
Q 3884 3275 3436 3711 
Q 2988 4147 2022 4147 
L 1259 4147 
z
M 628 4666 
L 1925 4666 
Q 3281 4666 3915 4102 
Q 4550 3538 4550 2338 
Q 4550 1131 3912 565 
Q 3275 0 1925 0 
L 628 0 
L 628 4666 
z
" transform="scale(0.015625)"/>
      </defs>
      <use xlink:href="#DejaVuSans-53"/>
      <use xlink:href="#DejaVuSans-75" x="63.476562"/>
      <use xlink:href="#DejaVuSans-62" x="126.855469"/>
      <use xlink:href="#DejaVuSans-73" x="190.332031"/>
      <use xlink:href="#DejaVuSans-74" x="242.431641"/>
      <use xlink:href="#DejaVuSans-72" x="281.640625"/>
      <use xlink:href="#DejaVuSans-75" x="322.753906"/>
      <use xlink:href="#DejaVuSans-63" x="386.132812"/>
      <use xlink:href="#DejaVuSans-74" x="441.113281"/>
      <use xlink:href="#DejaVuSans-75" x="480.322266"/>
      <use xlink:href="#DejaVuSans-72" x="543.701172"/>
      <use xlink:href="#DejaVuSans-65" x="582.564453"/>
      <use xlink:href="#DejaVuSans-20" x="644.087891"/>
      <use xlink:href="#DejaVuSans-49" x="675.875"/>
      <use xlink:href="#DejaVuSans-44" x="705.367188"/>
     </g>
    </g>
   </g>
   <g id="matplotlib.axis_2">
    <g id="ytick_1">
     <g id="line2d_7">
      <defs>
       <path id="m623dde6d94" d="M 0 0 
L -3.5 0 
" style="stroke: #000000; stroke-width: 0.8"/>
      </defs>
      <g>
       <use xlink:href="#m623dde6d94" x="40.603125" y="300.04" style="stroke: #000000; stroke-width: 0.8"/>
      </g>
     </g>
     <g id="text_8">
      <!-- 0 -->
      <g transform="translate(27.240625 303.839219) scale(0.1 -0.1)">
       <use xlink:href="#DejaVuSans-30"/>
      </g>
     </g>
    </g>
    <g id="ytick_2">
     <g id="line2d_8">
      <g>
       <use xlink:href="#m623dde6d94" x="40.603125" y="269.05164" style="stroke: #000000; stroke-width: 0.8"/>
      </g>
     </g>
     <g id="text_9">
      <!-- 2 -->
      <g transform="translate(27.240625 272.850859) scale(0.1 -0.1)">
       <use xlink:href="#DejaVuSans-32"/>
      </g>
     </g>
    </g>
    <g id="ytick_3">
     <g id="line2d_9">
      <g>
       <use xlink:href="#m623dde6d94" x="40.603125" y="238.06328" style="stroke: #000000; stroke-width: 0.8"/>
      </g>
     </g>
     <g id="text_10">
      <!-- 4 -->
      <g transform="translate(27.240625 241.862499) scale(0.1 -0.1)">
       <defs>
        <path id="DejaVuSans-34" d="M 2419 4116 
L 825 1625 
L 2419 1625 
L 2419 4116 
z
M 2253 4666 
L 3047 4666 
L 3047 1625 
L 3713 1625 
L 3713 1100 
L 3047 1100 
L 3047 0 
L 2419 0 
L 2419 1100 
L 313 1100 
L 313 1709 
L 2253 4666 
z
" transform="scale(0.015625)"/>
       </defs>
       <use xlink:href="#DejaVuSans-34"/>
      </g>
     </g>
    </g>
    <g id="ytick_4">
     <g id="line2d_10">
      <g>
       <use xlink:href="#m623dde6d94" x="40.603125" y="207.074921" style="stroke: #000000; stroke-width: 0.8"/>
      </g>
     </g>
     <g id="text_11">
      <!-- 6 -->
      <g transform="translate(27.240625 210.874139) scale(0.1 -0.1)">
       <defs>
        <path id="DejaVuSans-36" d="M 2113 2584 
Q 1688 2584 1439 2293 
Q 1191 2003 1191 1497 
Q 1191 994 1439 701 
Q 1688 409 2113 409 
Q 2538 409 2786 701 
Q 3034 994 3034 1497 
Q 3034 2003 2786 2293 
Q 2538 2584 2113 2584 
z
M 3366 4563 
L 3366 3988 
Q 3128 4100 2886 4159 
Q 2644 4219 2406 4219 
Q 1781 4219 1451 3797 
Q 1122 3375 1075 2522 
Q 1259 2794 1537 2939 
Q 1816 3084 2150 3084 
Q 2853 3084 3261 2657 
Q 3669 2231 3669 1497 
Q 3669 778 3244 343 
Q 2819 -91 2113 -91 
Q 1303 -91 875 529 
Q 447 1150 447 2328 
Q 447 3434 972 4092 
Q 1497 4750 2381 4750 
Q 2619 4750 2861 4703 
Q 3103 4656 3366 4563 
z
" transform="scale(0.015625)"/>
       </defs>
       <use xlink:href="#DejaVuSans-36"/>
      </g>
     </g>
    </g>
    <g id="ytick_5">
     <g id="line2d_11">
      <g>
       <use xlink:href="#m623dde6d94" x="40.603125" y="176.086561" style="stroke: #000000; stroke-width: 0.8"/>
      </g>
     </g>
     <g id="text_12">
      <!-- 8 -->
      <g transform="translate(27.240625 179.88578) scale(0.1 -0.1)">
       <defs>
        <path id="DejaVuSans-38" d="M 2034 2216 
Q 1584 2216 1326 1975 
Q 1069 1734 1069 1313 
Q 1069 891 1326 650 
Q 1584 409 2034 409 
Q 2484 409 2743 651 
Q 3003 894 3003 1313 
Q 3003 1734 2745 1975 
Q 2488 2216 2034 2216 
z
M 1403 2484 
Q 997 2584 770 2862 
Q 544 3141 544 3541 
Q 544 4100 942 4425 
Q 1341 4750 2034 4750 
Q 2731 4750 3128 4425 
Q 3525 4100 3525 3541 
Q 3525 3141 3298 2862 
Q 3072 2584 2669 2484 
Q 3125 2378 3379 2068 
Q 3634 1759 3634 1313 
Q 3634 634 3220 271 
Q 2806 -91 2034 -91 
Q 1263 -91 848 271 
Q 434 634 434 1313 
Q 434 1759 690 2068 
Q 947 2378 1403 2484 
z
M 1172 3481 
Q 1172 3119 1398 2916 
Q 1625 2713 2034 2713 
Q 2441 2713 2670 2916 
Q 2900 3119 2900 3481 
Q 2900 3844 2670 4047 
Q 2441 4250 2034 4250 
Q 1625 4250 1398 4047 
Q 1172 3844 1172 3481 
z
" transform="scale(0.015625)"/>
       </defs>
       <use xlink:href="#DejaVuSans-38"/>
      </g>
     </g>
    </g>
    <g id="ytick_6">
     <g id="line2d_12">
      <g>
       <use xlink:href="#m623dde6d94" x="40.603125" y="145.098201" style="stroke: #000000; stroke-width: 0.8"/>
      </g>
     </g>
     <g id="text_13">
      <!-- 10 -->
      <g transform="translate(20.878125 148.89742) scale(0.1 -0.1)">
       <use xlink:href="#DejaVuSans-31"/>
       <use xlink:href="#DejaVuSans-30" x="63.623047"/>
      </g>
     </g>
    </g>
    <g id="ytick_7">
     <g id="line2d_13">
      <g>
       <use xlink:href="#m623dde6d94" x="40.603125" y="114.109841" style="stroke: #000000; stroke-width: 0.8"/>
      </g>
     </g>
     <g id="text_14">
      <!-- 12 -->
      <g transform="translate(20.878125 117.90906) scale(0.1 -0.1)">
       <use xlink:href="#DejaVuSans-31"/>
       <use xlink:href="#DejaVuSans-32" x="63.623047"/>
      </g>
     </g>
    </g>
    <g id="ytick_8">
     <g id="line2d_14">
      <g>
       <use xlink:href="#m623dde6d94" x="40.603125" y="83.121481" style="stroke: #000000; stroke-width: 0.8"/>
      </g>
     </g>
     <g id="text_15">
      <!-- 14 -->
      <g transform="translate(20.878125 86.9207) scale(0.1 -0.1)">
       <use xlink:href="#DejaVuSans-31"/>
       <use xlink:href="#DejaVuSans-34" x="63.623047"/>
      </g>
     </g>
    </g>
    <g id="ytick_9">
     <g id="line2d_15">
      <g>
       <use xlink:href="#m623dde6d94" x="40.603125" y="52.133122" style="stroke: #000000; stroke-width: 0.8"/>
      </g>
     </g>
     <g id="text_16">
      <!-- 16 -->
      <g transform="translate(20.878125 55.93234) scale(0.1 -0.1)">
       <use xlink:href="#DejaVuSans-31"/>
       <use xlink:href="#DejaVuSans-36" x="63.623047"/>
      </g>
     </g>
    </g>
    <g id="ytick_10">
     <g id="line2d_16">
      <g>
       <use xlink:href="#m623dde6d94" x="40.603125" y="21.144762" style="stroke: #000000; stroke-width: 0.8"/>
      </g>
     </g>
     <g id="text_17">
      <!-- 18 -->
      <g transform="translate(20.878125 24.943981) scale(0.1 -0.1)">
       <use xlink:href="#DejaVuSans-31"/>
       <use xlink:href="#DejaVuSans-38" x="63.623047"/>
      </g>
     </g>
    </g>
    <g id="text_18">
     <!-- Substructure count -->
     <g transform="translate(14.798438 201.519219) rotate(-90) scale(0.1 -0.1)">
      <defs>
       <path id="DejaVuSans-6f" d="M 1959 3097 
Q 1497 3097 1228 2736 
Q 959 2375 959 1747 
Q 959 1119 1226 758 
Q 1494 397 1959 397 
Q 2419 397 2687 759 
Q 2956 1122 2956 1747 
Q 2956 2369 2687 2733 
Q 2419 3097 1959 3097 
z
M 1959 3584 
Q 2709 3584 3137 3096 
Q 3566 2609 3566 1747 
Q 3566 888 3137 398 
Q 2709 -91 1959 -91 
Q 1206 -91 779 398 
Q 353 888 353 1747 
Q 353 2609 779 3096 
Q 1206 3584 1959 3584 
z
" transform="scale(0.015625)"/>
       <path id="DejaVuSans-6e" d="M 3513 2113 
L 3513 0 
L 2938 0 
L 2938 2094 
Q 2938 2591 2744 2837 
Q 2550 3084 2163 3084 
Q 1697 3084 1428 2787 
Q 1159 2491 1159 1978 
L 1159 0 
L 581 0 
L 581 3500 
L 1159 3500 
L 1159 2956 
Q 1366 3272 1645 3428 
Q 1925 3584 2291 3584 
Q 2894 3584 3203 3211 
Q 3513 2838 3513 2113 
z
" transform="scale(0.015625)"/>
      </defs>
      <use xlink:href="#DejaVuSans-53"/>
      <use xlink:href="#DejaVuSans-75" x="63.476562"/>
      <use xlink:href="#DejaVuSans-62" x="126.855469"/>
      <use xlink:href="#DejaVuSans-73" x="190.332031"/>
      <use xlink:href="#DejaVuSans-74" x="242.431641"/>
      <use xlink:href="#DejaVuSans-72" x="281.640625"/>
      <use xlink:href="#DejaVuSans-75" x="322.753906"/>
      <use xlink:href="#DejaVuSans-63" x="386.132812"/>
      <use xlink:href="#DejaVuSans-74" x="441.113281"/>
      <use xlink:href="#DejaVuSans-75" x="480.322266"/>
      <use xlink:href="#DejaVuSans-72" x="543.701172"/>
      <use xlink:href="#DejaVuSans-65" x="582.564453"/>
      <use xlink:href="#DejaVuSans-20" x="644.087891"/>
      <use xlink:href="#DejaVuSans-63" x="675.875"/>
      <use xlink:href="#DejaVuSans-6f" x="730.855469"/>
      <use xlink:href="#DejaVuSans-75" x="792.037109"/>
      <use xlink:href="#DejaVuSans-6e" x="855.416016"/>
      <use xlink:href="#DejaVuSans-74" x="918.794922"/>
     </g>
    </g>
   </g>
   <g id="patch_242">
    <path d="M 40.603125 300.04 
L 40.603125 7.2 
" style="fill: none; stroke: #000000; stroke-width: 0.8; stroke-linejoin: miter; stroke-linecap: square"/>
   </g>
   <g id="patch_243">
    <path d="M 437.006619 300.04 
L 437.006619 7.2 
" style="fill: none; stroke: #000000; stroke-width: 0.8; stroke-linejoin: miter; stroke-linecap: square"/>
   </g>
   <g id="patch_244">
    <path d="M 40.603125 300.04 
L 437.006619 300.04 
" style="fill: none; stroke: #000000; stroke-width: 0.8; stroke-linejoin: miter; stroke-linecap: square"/>
   </g>
   <g id="patch_245">
    <path d="M 40.603125 7.2 
L 437.006619 7.2 
" style="fill: none; stroke: #000000; stroke-width: 0.8; stroke-linejoin: miter; stroke-linecap: square"/>
   </g>
  </g>
 </g>
 <defs>
  <clipPath id="p29d3ecf819">
   <rect x="40.603125" y="7.2" width="396.403494" height="292.84"/>
  </clipPath>
 </defs>
</svg>
